<svg xmlns="http://www.w3.org/2000/svg" viewBox="0 0 1200 860" font-family="Arial, Helvetica, sans-serif" font-size="15">
  <defs>
    <marker id="arrow" viewBox="0 0 10 10" refX="9" refY="5" markerWidth="8" markerHeight="8" orient="auto">
      <path d="M0,0 L10,5 L0,10 z" fill="#444"/>
    </marker>
    <marker id="arrow-orange" viewBox="0 0 10 10" refX="9" refY="5" markerWidth="8" markerHeight="8" orient="auto">
      <path d="M0,0 L10,5 L0,10 z" fill="#bf360c"/>
    </marker>
    <marker id="arrow-clone" viewBox="0 0 10 10" refX="9" refY="5" markerWidth="8" markerHeight="8" orient="auto">
      <path d="M0,0 L10,5 L0,10 z" fill="#1565c0"/>
    </marker>
    <marker id="arrow-freeze" viewBox="0 0 10 10" refX="9" refY="5" markerWidth="8" markerHeight="8" orient="auto">
      <path d="M0,0 L10,5 L0,10 z" fill="#388e3c"/>
    </marker>
    <marker id="arrow-archive" viewBox="0 0 10 10" refX="9" refY="5" markerWidth="8" markerHeight="8" orient="auto">
      <path d="M0,0 L10,5 L0,10 z" fill="#757575"/>
    </marker>
    <marker id="arrow-pink" viewBox="0 0 10 10" refX="9" refY="5" markerWidth="8" markerHeight="8" orient="auto">
      <path d="M0,0 L10,5 L0,10 z" fill="#ad1457"/>
    </marker>
    <marker id="arrow-purple" viewBox="0 0 10 10" refX="9" refY="5" markerWidth="8" markerHeight="8" orient="auto">
      <path d="M0,0 L10,5 L0,10 z" fill="#5e35b1"/>
    </marker>
    <filter id="shadow" x="-10%" y="-10%" width="120%" height="120%">
      <feDropShadow dx="1" dy="2" stdDeviation="1.5" flood-opacity="0.12"/>
    </filter>
  </defs>

  <rect width="1200" height="860" fill="#ffffff"/>

  <!-- Title -->
  <text x="600" y="42" text-anchor="middle" font-size="22" font-weight="bold">ePIC Automated Production Workflow</text>


  <!-- ====== UPSTREAM: Requests + PCS Tasks Compose ====== -->
  <rect x="40" y="104" width="180" height="76" rx="8" fill="#ede7f6" stroke="#5e35b1" stroke-width="1.8" filter="url(#shadow)"/>
  <text x="130" y="133" text-anchor="middle" font-weight="bold" font-size="15" fill="#4527a0">PWG, DSC</text>
  <text x="130" y="154" text-anchor="middle" font-weight="bold" font-size="15" fill="#4527a0">prod requests</text>

  <line x1="222" y1="142" x2="258" y2="142" stroke="#5e35b1" stroke-width="1.7" stroke-dasharray="5 4" marker-end="url(#arrow-purple)"/>

  <rect x="260" y="78" width="900" height="120" rx="12" fill="#fff8f0" stroke="#e65100" stroke-width="1.5" stroke-dasharray="6 4"/>
  <text x="710" y="108" text-anchor="middle" font-weight="bold" font-size="16" fill="#bf360c">Physics Configuration System (PCS) Task Composition</text>

  <rect x="300" y="130" width="150" height="50" rx="6" fill="#ffe0b2" stroke="#e65100" stroke-width="1.5" filter="url(#shadow)"/>
  <text x="375" y="151" text-anchor="middle" font-weight="bold" font-size="13">Tags (p · e · s · r · k)</text>
  <text x="375" y="171" text-anchor="middle" font-weight="bold" font-size="13">3rd party evgen</text>
  <line x1="452" y1="155" x2="488" y2="155" stroke="#bf360c" stroke-width="1.6" marker-end="url(#arrow-orange)"/>

  <rect x="490" y="130" width="150" height="50" rx="6" fill="#ffe0b2" stroke="#e65100" stroke-width="1.5" filter="url(#shadow)"/>
  <text x="565" y="160" text-anchor="middle" font-weight="bold">Datasets</text>
  <line x1="642" y1="155" x2="678" y2="155" stroke="#bf360c" stroke-width="1.6" marker-end="url(#arrow-orange)"/>

  <rect x="680" y="130" width="160" height="50" rx="6" fill="#ffe0b2" stroke="#e65100" stroke-width="1.5" filter="url(#shadow)"/>
  <text x="760" y="160" text-anchor="middle" font-weight="bold" font-size="14">Production Configs</text>
  <line x1="842" y1="155" x2="878" y2="155" stroke="#bf360c" stroke-width="1.6" marker-end="url(#arrow-orange)"/>

  <rect x="880" y="130" width="150" height="50" rx="6" fill="#ffd180" stroke="#bf360c" stroke-width="2" filter="url(#shadow)"/>
  <text x="955" y="160" text-anchor="middle" font-weight="bold">Prod Tasks</text>

  <!-- PCS Prod Tasks → Prepping (rightmost catalog column, straight down) -->
  <line x1="955" y1="180" x2="970" y2="290" stroke="#bf360c" stroke-width="2" marker-end="url(#arrow)"/>
  <text x="985" y="234" font-size="13" fill="#bf360c" font-style="italic">new task</text>

  <!-- ====== CATALOG ====== -->
  <rect x="40" y="248" width="1120" height="320" rx="12" fill="#fafafa" stroke="#444" stroke-width="1.8"/>
  <text x="600" y="274" text-anchor="middle" font-weight="bold" font-size="17">ePIC Production Task Catalog — staged by campaign lifecycle</text>

  <!-- Past (LEFT) -->
  <rect x="70" y="294" width="320" height="252" rx="8" fill="#f5f5f5" stroke="#757575" stroke-width="2" filter="url(#shadow)"/>
  <text x="230" y="320" text-anchor="middle" font-weight="bold" font-size="16" fill="#424242">Past Campaigns</text>
  <text x="230" y="338" text-anchor="middle" font-size="13" font-style="italic" fill="#666">frozen archive</text>
  <line x1="90" y1="350" x2="370" y2="350" stroke="#bdbdbd" stroke-width="1"/>
  <text x="230" y="376" text-anchor="middle" font-size="14" font-weight="bold">25.10 · 26.02 · 26.04 …</text>
  <text x="230" y="398" text-anchor="middle" font-size="14">completed · submitted · failed</text>
  <text x="230" y="418" text-anchor="middle" font-size="14">all task params preserved</text>
  <text x="230" y="450" text-anchor="middle" font-size="14" fill="#555">Operator actions</text>
  <text x="230" y="470" text-anchor="middle" font-size="14">browse</text>
  <text x="230" y="490" text-anchor="middle" font-size="14">clone</text>

  <!-- Current (MIDDLE) -->
  <rect x="440" y="294" width="320" height="252" rx="8" fill="#e8f5e9" stroke="#388e3c" stroke-width="2.5" filter="url(#shadow)"/>
  <text x="600" y="320" text-anchor="middle" font-weight="bold" font-size="16" fill="#1b5e20">Current Campaign</text>
  <text x="600" y="338" text-anchor="middle" font-size="13" font-style="italic" fill="#388e3c">active · submission live</text>
  <line x1="460" y1="350" x2="740" y2="350" stroke="#a5d6a7" stroke-width="1"/>
  <text x="600" y="376" text-anchor="middle" font-size="14" font-weight="bold">26.06 (running)</text>
  <text x="600" y="396" text-anchor="middle" font-size="14">tasks: ready → submitted</text>
  <text x="600" y="414" text-anchor="middle" font-size="14">live status from panda, rucio</text>
  <text x="600" y="432" text-anchor="middle" font-size="14">diagnostic drill-down · analytics</text>
  <text x="600" y="450" text-anchor="middle" font-size="14">AI monitoring · diagnostics</text>
  <text x="600" y="476" text-anchor="middle" font-size="14" fill="#555">Operator actions</text>
  <text x="600" y="496" text-anchor="middle" font-size="14">submit to panda</text>
  <text x="600" y="514" text-anchor="middle" font-size="14">manage priorities</text>
  <text x="600" y="532" text-anchor="middle" font-size="14">manage retries · alarm system</text>

  <!-- Prepping (RIGHT) -->
  <rect x="810" y="294" width="320" height="252" rx="8" fill="#e3f2fd" stroke="#1565c0" stroke-width="2.5" filter="url(#shadow)"/>
  <text x="970" y="320" text-anchor="middle" font-weight="bold" font-size="16" fill="#0d47a1">Prepping Campaign(s)</text>
  <text x="970" y="338" text-anchor="middle" font-size="13" font-style="italic" fill="#1565c0">mutable · accepting new + clones</text>
  <line x1="830" y1="350" x2="1110" y2="350" stroke="#90caf9" stroke-width="1"/>
  <text x="970" y="376" text-anchor="middle" font-size="14" font-weight="bold">26.08 (draft) …</text>
  <text x="970" y="398" text-anchor="middle" font-size="14">tasks: draft → ready</text>
  <text x="970" y="418" text-anchor="middle" font-size="14">readiness checks</text>
  <text x="970" y="446" text-anchor="middle" font-size="14" fill="#555">Operator actions</text>
  <text x="970" y="466" text-anchor="middle" font-size="14">add new tasks</text>
  <text x="970" y="486" text-anchor="middle" font-size="14">add/edit clones</text>
  <text x="970" y="506" text-anchor="middle" font-size="14">adjust priority</text>
  <text x="970" y="526" text-anchor="middle" font-size="14">withdraw</text>

  <!-- ====== DOWNSTREAM: PanDA ====== -->
  <rect x="40" y="620" width="320" height="90" rx="10" fill="#fff9c4" stroke="#f9a825" stroke-width="2" filter="url(#shadow)"/>
  <text x="200" y="652" text-anchor="middle" font-weight="bold" font-size="17" fill="#9c6f00">Submission</text>
  <text x="200" y="678" text-anchor="middle" font-size="14" fill="#555">PanDA</text>
  <text x="200" y="697" text-anchor="middle" font-size="14" fill="#555">produces Rucio data products</text>

  <!-- Current → PanDA: submit to panda -->
  <line x1="600" y1="546" x2="200" y2="618" stroke="#388e3c" stroke-width="2.4" marker-end="url(#arrow-freeze)"/>
  <text x="380" y="585" text-anchor="middle" font-size="13" fill="#388e3c" font-style="italic">submit</text>

  <!-- ====== MONITORING · OBSERVABILITY · CONTROLS ====== -->
  <rect x="380" y="620" width="780" height="200" rx="10" fill="#fce4ec" stroke="#ad1457" stroke-width="1.8" stroke-dasharray="6 4"/>
  <text x="770" y="644" text-anchor="middle" font-weight="bold" font-size="16" fill="#880e4f">Monitoring · observability · controls</text>

  <!-- Row 1 -->
  <rect x="400" y="660" width="230" height="60" rx="6" fill="#f8bbd0" stroke="#ad1457" stroke-width="1.4" filter="url(#shadow)"/>
  <text x="515" y="682" text-anchor="middle" font-weight="bold" font-size="15">PanDA Monitor</text>
  <text x="515" y="702" text-anchor="middle" font-size="13" fill="#555">tasks · jobs · sites · rucio outputs</text>

  <rect x="655" y="660" width="230" height="60" rx="6" fill="#f8bbd0" stroke="#ad1457" stroke-width="1.4" filter="url(#shadow)"/>
  <text x="770" y="682" text-anchor="middle" font-weight="bold" font-size="15">DISpatcher · Mattermost</text>
  <text x="770" y="702" text-anchor="middle" font-size="13" fill="#555">user AI dialog channel</text>

  <rect x="910" y="660" width="230" height="60" rx="6" fill="#f8bbd0" stroke="#ad1457" stroke-width="1.4" filter="url(#shadow)"/>
  <text x="1025" y="682" text-anchor="middle" font-weight="bold" font-size="15">swf-monitor</text>
  <text x="1025" y="702" text-anchor="middle" font-size="13" fill="#555">PCS, epicprod</text>

  <!-- Row 2 -->
  <rect x="400" y="738" width="230" height="60" rx="6" fill="#f8bbd0" stroke="#ad1457" stroke-width="1.4" filter="url(#shadow)"/>
  <text x="515" y="760" text-anchor="middle" font-weight="bold" font-size="15">Alarm System</text>
  <text x="515" y="780" text-anchor="middle" font-size="13" fill="#555">Ops-specified email alarms</text>

  <rect x="655" y="738" width="230" height="60" rx="6" fill="#f8bbd0" stroke="#ad1457" stroke-width="1.4" filter="url(#shadow)"/>
  <text x="770" y="760" text-anchor="middle" font-weight="bold" font-size="15">corun-ai</text>
  <text x="770" y="780" text-anchor="middle" font-size="13" fill="#555">AI monitoring &amp; diagnostics</text>

  <rect x="910" y="738" width="230" height="60" rx="6" fill="#f8bbd0" stroke="#ad1457" stroke-width="1.4" filter="url(#shadow)"/>
  <text x="1025" y="760" text-anchor="middle" font-weight="bold" font-size="15">Rucio Monitor</text>
  <text x="1025" y="780" text-anchor="middle" font-size="13" fill="#555">data products · storage elements</text>

  <!-- PanDA → monitoring -->
  <line x1="360" y1="665" x2="398" y2="680" stroke="#ad1457" stroke-width="1.5" marker-end="url(#arrow-pink)"/>

  <!-- Monitoring → Current (status feedback & controls) -->
  <path d="M515,660 C515,615 580,580 600,560" fill="none" stroke="#ad1457" stroke-width="1.4" stroke-dasharray="4 3" marker-end="url(#arrow-pink)"/>
  <text x="530" y="608" font-size="13" fill="#ad1457" font-style="italic">status feedback &amp; controls</text>

  <!-- Footer -->
</svg>
