<svg xmlns="http://www.w3.org/2000/svg" viewBox="0 0 1200 890" font-family="Helvetica, Arial, sans-serif">
  <defs>
    <marker id="arrowNavy" markerUnits="userSpaceOnUse" markerWidth="14" markerHeight="12" refX="12" refY="6" orient="auto">
      <path d="M0,0 L12,6 L0,12 z" fill="#17365d"/>
    </marker>
    <marker id="arrowStream" markerUnits="userSpaceOnUse" markerWidth="18" markerHeight="15" refX="16" refY="7.5" orient="auto">
      <path d="M0,0 L16,7.5 L0,15 z" fill="#a64d79"/>
    </marker>
  </defs>

  <rect x="0" y="0" width="1200" height="890" fill="#ffffff"/>

  <!-- Title -->
  <text x="600" y="38" text-anchor="middle" font-size="27" font-weight="bold" fill="#1a1a1a">The ePIC Computing Model</text>

  <!-- ===== Echelon 0 ===== -->
  <rect x="225" y="62" width="745" height="180" rx="10" fill="#f2f6fc" stroke="#4472c4" stroke-width="2" stroke-dasharray="8,5"/>
  <text x="600" y="88" text-anchor="middle" font-size="17" font-weight="bold" fill="#17365d">Echelon 0 — detector &amp; DAQ</text>

  <rect x="250" y="112" width="145" height="95" rx="6" fill="#9fb4de" stroke="#17365d" stroke-width="2"/>
  <text x="322" y="150" text-anchor="middle" font-size="20" font-weight="bold" fill="#10243f">IP6</text>
  <text x="322" y="176" text-anchor="middle" font-size="15" fill="#10243f">DAQ room</text>

  <line x1="395" y1="160" x2="466" y2="160" stroke="#17365d" stroke-width="3" marker-end="url(#arrowNavy)"/>
  <text x="432" y="147" text-anchor="middle" font-size="15" font-weight="bold" fill="#17365d">4 Tbps</text>

  <rect x="475" y="95" width="470" height="130" rx="6" fill="#eaeffa" stroke="#4472c4" stroke-width="2"/>
  <text x="710" y="119" text-anchor="middle" font-size="16.5" font-weight="bold" fill="#17365d">DAQ enclave — BNL data center</text>

  <rect x="495" y="130" width="190" height="80" rx="5" fill="#9fb4de" stroke="#17365d" stroke-width="2"/>
  <text x="590" y="162" text-anchor="middle" font-size="16" font-weight="bold" fill="#10243f">TF / STF building</text>
  <text x="590" y="186" text-anchor="middle" font-size="14.5" fill="#10243f">Computer farm</text>

  <line x1="685" y1="170" x2="731" y2="170" stroke="#17365d" stroke-width="3" marker-end="url(#arrowNavy)"/>

  <rect x="735" y="130" width="190" height="80" rx="5" fill="#9fb4de" stroke="#17365d" stroke-width="2"/>
  <text x="830" y="153" text-anchor="middle" font-size="16" font-weight="bold" fill="#10243f">DAQ exit buffer</text>
  <text x="830" y="174" text-anchor="middle" font-size="14.5" fill="#10243f">72 hr depth</text>
  <text x="830" y="196" text-anchor="middle" font-size="14.5" fill="#10243f">Outward face to E1</text>

  <!-- ===== Butterfly: raw data fan-out ===== -->
  <line x1="520" y1="242" x2="415" y2="356" stroke="#a64d79" stroke-width="4" marker-end="url(#arrowStream)"/>
  <line x1="680" y1="242" x2="785" y2="356" stroke="#a64d79" stroke-width="4" marker-end="url(#arrowStream)"/>
  <text x="600" y="268" text-anchor="middle" font-size="15" font-weight="bold" fill="#a64d79">Raw TF/STF streams</text>
  <text x="600" y="292" text-anchor="middle" font-size="15" font-weight="bold" font-style="italic" fill="#a64d79">The butterfly model</text>
  <text x="745" y="304" font-size="15" font-weight="bold" fill="#a64d79">400 Gbps via ESnet</text>

  <!-- ===== Global processing, storage, and networking boundary ===== -->
  <rect x="200" y="315" width="800" height="407" rx="12" fill="none" stroke="#c00000" stroke-width="2.5" stroke-dasharray="10,6"/>
  <text x="600" y="711" text-anchor="middle" font-size="16.5" font-weight="bold" fill="#c00000">Global processing, storage, and networking</text>

  <!-- Echelon 1 -->
  <rect x="230" y="330" width="740" height="200" rx="8" fill="none" stroke="#7f7f7f" stroke-width="1.5" stroke-dasharray="6,4"/>
  <text x="600" y="352" text-anchor="middle" font-size="16.5" font-weight="bold" fill="#17365d">Echelon 1 — host labs</text>

  <rect x="255" y="364" width="320" height="82" rx="6" fill="#a9d18e" stroke="#538135" stroke-width="2.5"/>
  <text x="415" y="390" text-anchor="middle" font-size="20" font-weight="bold" fill="#1a1a1a">BNL</text>
  <text x="415" y="412" text-anchor="middle" font-size="15" fill="#333333">Buffer · archive</text>
  <text x="415" y="432" text-anchor="middle" font-size="15" fill="#333333">Prompt processing · fast monitoring</text>

  <rect x="625" y="364" width="320" height="82" rx="6" fill="#a9d18e" stroke="#538135" stroke-width="2.5"/>
  <text x="785" y="390" text-anchor="middle" font-size="20" font-weight="bold" fill="#1a1a1a">Jefferson Lab</text>
  <text x="785" y="412" text-anchor="middle" font-size="15" fill="#333333">Buffer · archive</text>
  <text x="785" y="432" text-anchor="middle" font-size="15" fill="#333333">Prompt processing · fast monitoring</text>

  <!-- Jointly hosted services bar -->
  <line x1="415" y1="446" x2="415" y2="460" stroke="#7f7f7f" stroke-width="2"/>
  <line x1="785" y1="446" x2="785" y2="460" stroke="#7f7f7f" stroke-width="2"/>
  <rect x="255" y="460" width="690" height="54" rx="6" fill="#eef1f9" stroke="#4472c4" stroke-width="2"/>
  <text x="600" y="481" text-anchor="middle" font-size="15.5" font-weight="bold" fill="#17365d">Jointly hosted services</text>
  <text x="600" y="503" text-anchor="middle" font-size="14.5" fill="#333333">Data management (Rucio) · workload management (e.g., PanDA) · AI/agentic services · databases</text>

  <!-- E1 to E2 connectors -->
  <line x1="415" y1="514" x2="415" y2="555" stroke="#7f7f7f" stroke-width="2"/>
  <line x1="785" y1="514" x2="785" y2="555" stroke="#7f7f7f" stroke-width="2"/>

  <!-- Echelon 2 -->
  <rect x="230" y="555" width="740" height="142" rx="8" fill="none" stroke="#7f7f7f" stroke-width="1.5" stroke-dasharray="6,4"/>
  <text x="600" y="577" text-anchor="middle" font-size="16.5" font-weight="bold" fill="#17365d">Echelon 2 — global facilities with defined roles</text>

  <rect x="260" y="590" width="200" height="52" rx="6" fill="#d6e8cc" stroke="#538135" stroke-width="2"/>
  <text x="360" y="622" text-anchor="middle" font-size="17.5" font-weight="bold" fill="#1a1a1a">Facility A</text>
  <rect x="500" y="590" width="200" height="52" rx="6" fill="#d6e8cc" stroke="#538135" stroke-width="2"/>
  <text x="600" y="622" text-anchor="middle" font-size="17.5" font-weight="bold" fill="#1a1a1a">Facility B</text>
  <rect x="740" y="590" width="200" height="52" rx="6" fill="#d6e8cc" stroke="#538135" stroke-width="2"/>
  <text x="840" y="622" text-anchor="middle" font-size="17.5" font-weight="bold" fill="#1a1a1a">Facility C</text>

  <text x="600" y="674" text-anchor="middle" font-size="14.5" font-style="italic" fill="#555555">Storage joins as Rucio storage elements · compute joins as PanDA queues</text>

  <!-- Global zone to E3 connectors -->
  <line x1="480" y1="722" x2="480" y2="752" stroke="#7f7f7f" stroke-width="2"/>
  <line x1="720" y1="722" x2="720" y2="752" stroke="#7f7f7f" stroke-width="2"/>

  <!-- ===== Echelon 3 ===== -->
  <rect x="140" y="752" width="920" height="110" rx="8" fill="#fafafa" stroke="#7f7f7f" stroke-width="1.5" stroke-dasharray="6,4"/>
  <text x="600" y="776" text-anchor="middle" font-size="17" font-weight="bold" fill="#17365d">Echelon 3 — international computing where the physicists are</text>

  <rect x="210" y="788" width="180" height="36" rx="5" fill="#e8e8e8" stroke="#7f7f7f" stroke-width="1.5"/>
  <text x="300" y="811" text-anchor="middle" font-size="15" fill="#333333">Home institution</text>
  <rect x="410" y="788" width="180" height="36" rx="5" fill="#e8e8e8" stroke="#7f7f7f" stroke-width="1.5"/>
  <text x="500" y="811" text-anchor="middle" font-size="15" fill="#333333">Home institution</text>
  <rect x="610" y="788" width="180" height="36" rx="5" fill="#e8e8e8" stroke="#7f7f7f" stroke-width="1.5"/>
  <text x="700" y="811" text-anchor="middle" font-size="15" fill="#333333">Home institution</text>
  <rect x="810" y="788" width="180" height="36" rx="5" fill="#e8e8e8" stroke="#7f7f7f" stroke-width="1.5"/>
  <text x="900" y="811" text-anchor="middle" font-size="15" fill="#333333">Home institution</text>

  <text x="600" y="849" text-anchor="middle" font-size="14.5" fill="#17365d">Data discovery · data access (Rucio, XRootD) · individual and managed workflows</text>
</svg>
