<?xml version="1.0" encoding="UTF-8" standalone="no"?>
<!DOCTYPE svg PUBLIC "-//W3C//DTD SVG 1.1//EN"
 "http://www.w3.org/Graphics/SVG/1.1/DTD/svg11.dtd">
<!-- Generated by graphviz version 2.40.1 (0)
 -->
<!-- Title: pcs_data_model Pages: 1 -->
<svg width="1978pt" height="1786pt"
 viewBox="0.00 0.00 1978.00 1786.00" xmlns="http://www.w3.org/2000/svg" xmlns:xlink="http://www.w3.org/1999/xlink">
<g id="graph0" class="graph" transform="scale(1 1) rotate(0) translate(4 1782)">
<title>pcs_data_model</title>
<polygon fill="#ffffff" stroke="transparent" points="-4,4 -4,-1782 1974,-1782 1974,4 -4,4"/>
<g id="clust1" class="cluster">
<title>cluster_tags</title>
<path fill="#eef4fb" stroke="#c8c8c8" d="M1203,-446C1203,-446 1950,-446 1950,-446 1956,-446 1962,-452 1962,-458 1962,-458 1962,-1350 1962,-1350 1962,-1356 1956,-1362 1950,-1362 1950,-1362 1203,-1362 1203,-1362 1197,-1362 1191,-1356 1191,-1350 1191,-1350 1191,-458 1191,-458 1191,-452 1197,-446 1203,-446"/>
<text text-anchor="middle" x="1576.5" y="-1342" font-family="Helvetica,sans-Serif" font-size="20.00" fill="#000000">Configuration tags</text>
</g>
<g id="clust2" class="cluster">
<title>cluster_catalog</title>
<path fill="#eaf6ec" stroke="#c8c8c8" d="M766,-1370C766,-1370 1688,-1370 1688,-1370 1694,-1370 1700,-1376 1700,-1382 1700,-1382 1700,-1758 1700,-1758 1700,-1764 1694,-1770 1688,-1770 1688,-1770 766,-1770 766,-1770 760,-1770 754,-1764 754,-1758 754,-1758 754,-1382 754,-1382 754,-1376 760,-1370 766,-1370"/>
<text text-anchor="middle" x="1227" y="-1750" font-family="Helvetica,sans-Serif" font-size="20.00" fill="#000000">Datasets and campaigns</text>
</g>
<g id="clust3" class="cluster">
<title>cluster_production</title>
<path fill="#fdf3e7" stroke="#c8c8c8" d="M20,-8C20,-8 1938,-8 1938,-8 1944,-8 1950,-14 1950,-20 1950,-20 1950,-426 1950,-426 1950,-432 1944,-438 1938,-438 1938,-438 20,-438 20,-438 14,-438 8,-432 8,-426 8,-426 8,-20 8,-20 8,-14 14,-8 20,-8"/>
<text text-anchor="middle" x="979" y="-418" font-family="Helvetica,sans-Serif" font-size="20.00" fill="#000000">Requests and tasks</text>
</g>
<!-- PhysicsCategory -->
<g id="node1" class="node">
<title>PhysicsCategory</title>
<path fill="#ffffff" stroke="#000000" d="M1942,-588C1942,-588 1771,-588 1771,-588 1765,-588 1759,-582 1759,-576 1759,-576 1759,-498 1759,-498 1759,-492 1765,-486 1771,-486 1771,-486 1942,-486 1942,-486 1948,-486 1954,-492 1954,-498 1954,-498 1954,-576 1954,-576 1954,-582 1948,-588 1942,-588"/>
<text text-anchor="start" x="1770.5" y="-566" font-family="Helvetica,sans-Serif" font-weight="bold" font-size="15.00" fill="#000000">PhysicsCategory</text>
<text text-anchor="start" x="1770.5" y="-544" font-family="Helvetica,sans-Serif" font-size="15.00" fill="#000000">name</text>
<text text-anchor="start" x="1812.5" y="-544" font-family="Helvetica,sans-Serif" font-size="15.00" fill="#666666">char</text>
<text text-anchor="start" x="1770.5" y="-523" font-family="Helvetica,sans-Serif" font-size="15.00" fill="#000000">digit</text>
<text text-anchor="start" x="1812.5" y="-523" font-family="Helvetica,sans-Serif" font-size="15.00" fill="#666666">positivesmallinteger</text>
<text text-anchor="start" x="1770.5" y="-502" font-family="Helvetica,sans-Serif" font-size="15.00" fill="#999999">+ 3 more fields</text>
<polygon fill="#000000" stroke="#000000" points="1768.5,-558 1768.5,-558 1945.5,-558 1945.5,-558 1768.5,-558"/>
</g>
<!-- PhysicsTag -->
<g id="node2" class="node">
<title>PhysicsTag</title>
<path fill="#ffffff" stroke="#000000" d="M1426,-619.5C1426,-619.5 1211,-619.5 1211,-619.5 1205,-619.5 1199,-613.5 1199,-607.5 1199,-607.5 1199,-466.5 1199,-466.5 1199,-460.5 1205,-454.5 1211,-454.5 1211,-454.5 1426,-454.5 1426,-454.5 1432,-454.5 1438,-460.5 1438,-466.5 1438,-466.5 1438,-607.5 1438,-607.5 1438,-613.5 1432,-619.5 1426,-619.5"/>
<text text-anchor="start" x="1210.5" y="-597" font-family="Helvetica,sans-Serif" font-weight="bold" font-size="15.00" fill="#000000">PhysicsTag</text>
<text text-anchor="start" x="1210.5" y="-575" font-family="Helvetica,sans-Serif" font-size="15.00" fill="#000000">tag_number</text>
<text text-anchor="start" x="1295.5" y="-575" font-family="Helvetica,sans-Serif" font-size="15.00" fill="#666666">integer</text>
<text text-anchor="start" x="1210.5" y="-554" font-family="Helvetica,sans-Serif" font-size="15.00" fill="#000000">tag_label</text>
<text text-anchor="start" x="1295.5" y="-554" font-family="Helvetica,sans-Serif" font-size="15.00" fill="#666666">char</text>
<text text-anchor="start" x="1210.5" y="-533" font-family="Helvetica,sans-Serif" font-size="15.00" fill="#000000">status</text>
<text text-anchor="start" x="1295.5" y="-533" font-family="Helvetica,sans-Serif" font-size="15.00" fill="#666666">char</text>
<text text-anchor="start" x="1210.5" y="-512" font-family="Helvetica,sans-Serif" font-size="15.00" fill="#000000">parameters</text>
<text text-anchor="start" x="1295.5" y="-512" font-family="Helvetica,sans-Serif" font-size="15.00" fill="#666666">json</text>
<text text-anchor="start" x="1210.5" y="-491" font-family="Helvetica,sans-Serif" font-size="15.00" fill="#000000">category</text>
<text text-anchor="start" x="1295.5" y="-491" font-family="Helvetica,sans-Serif" font-size="15.00" fill="#666666">→ PhysicsCategory</text>
<text text-anchor="start" x="1210.5" y="-470" font-family="Helvetica,sans-Serif" font-size="15.00" fill="#999999">+ 4 more fields</text>
<polygon fill="#000000" stroke="#000000" points="1208.5,-589 1208.5,-589 1429.5,-589 1429.5,-589 1208.5,-589"/>
</g>
<!-- PhysicsTag&#45;&gt;PhysicsCategory -->
<g id="edge1" class="edge">
<title>PhysicsTag&#45;&gt;PhysicsCategory</title>
<path fill="none" stroke="#444444" d="M1438.2337,-537C1531.1041,-537 1658.7069,-537 1748.4763,-537"/>
<polygon fill="#444444" stroke="#444444" points="1748.6827,-540.5001 1758.6826,-537 1748.6826,-533.5001 1748.6827,-540.5001"/>
<text text-anchor="middle" x="1598.5" y="-540.8" font-family="Helvetica,sans-Serif" font-size="14.00" fill="#000000">category</text>
</g>
<!-- EvgenTag -->
<g id="node3" class="node">
<title>EvgenTag</title>
<path fill="#ffffff" stroke="#000000" d="M1383,-1324C1383,-1324 1254,-1324 1254,-1324 1248,-1324 1242,-1318 1242,-1312 1242,-1312 1242,-1192 1242,-1192 1242,-1186 1248,-1180 1254,-1180 1254,-1180 1383,-1180 1383,-1180 1389,-1180 1395,-1186 1395,-1192 1395,-1192 1395,-1312 1395,-1312 1395,-1318 1389,-1324 1383,-1324"/>
<text text-anchor="start" x="1253.5" y="-1302" font-family="Helvetica,sans-Serif" font-weight="bold" font-size="15.00" fill="#000000">EvgenTag</text>
<text text-anchor="start" x="1253.5" y="-1280" font-family="Helvetica,sans-Serif" font-size="15.00" fill="#000000">tag_number</text>
<text text-anchor="start" x="1338.5" y="-1280" font-family="Helvetica,sans-Serif" font-size="15.00" fill="#666666">integer</text>
<text text-anchor="start" x="1253.5" y="-1259" font-family="Helvetica,sans-Serif" font-size="15.00" fill="#000000">tag_label</text>
<text text-anchor="start" x="1338.5" y="-1259" font-family="Helvetica,sans-Serif" font-size="15.00" fill="#666666">char</text>
<text text-anchor="start" x="1253.5" y="-1238" font-family="Helvetica,sans-Serif" font-size="15.00" fill="#000000">status</text>
<text text-anchor="start" x="1338.5" y="-1238" font-family="Helvetica,sans-Serif" font-size="15.00" fill="#666666">char</text>
<text text-anchor="start" x="1253.5" y="-1217" font-family="Helvetica,sans-Serif" font-size="15.00" fill="#000000">parameters</text>
<text text-anchor="start" x="1338.5" y="-1217" font-family="Helvetica,sans-Serif" font-size="15.00" fill="#666666">json</text>
<text text-anchor="start" x="1253.5" y="-1196" font-family="Helvetica,sans-Serif" font-size="15.00" fill="#999999">+ 4 more fields</text>
<polygon fill="#000000" stroke="#000000" points="1251.5,-1294 1251.5,-1294 1386.5,-1294 1386.5,-1294 1251.5,-1294"/>
</g>
<!-- SimuTag -->
<g id="node4" class="node">
<title>SimuTag</title>
<path fill="#ffffff" stroke="#000000" d="M1383,-1148C1383,-1148 1254,-1148 1254,-1148 1248,-1148 1242,-1142 1242,-1136 1242,-1136 1242,-1016 1242,-1016 1242,-1010 1248,-1004 1254,-1004 1254,-1004 1383,-1004 1383,-1004 1389,-1004 1395,-1010 1395,-1016 1395,-1016 1395,-1136 1395,-1136 1395,-1142 1389,-1148 1383,-1148"/>
<text text-anchor="start" x="1253.5" y="-1126" font-family="Helvetica,sans-Serif" font-weight="bold" font-size="15.00" fill="#000000">SimuTag</text>
<text text-anchor="start" x="1253.5" y="-1104" font-family="Helvetica,sans-Serif" font-size="15.00" fill="#000000">tag_number</text>
<text text-anchor="start" x="1338.5" y="-1104" font-family="Helvetica,sans-Serif" font-size="15.00" fill="#666666">integer</text>
<text text-anchor="start" x="1253.5" y="-1083" font-family="Helvetica,sans-Serif" font-size="15.00" fill="#000000">tag_label</text>
<text text-anchor="start" x="1338.5" y="-1083" font-family="Helvetica,sans-Serif" font-size="15.00" fill="#666666">char</text>
<text text-anchor="start" x="1253.5" y="-1062" font-family="Helvetica,sans-Serif" font-size="15.00" fill="#000000">status</text>
<text text-anchor="start" x="1338.5" y="-1062" font-family="Helvetica,sans-Serif" font-size="15.00" fill="#666666">char</text>
<text text-anchor="start" x="1253.5" y="-1041" font-family="Helvetica,sans-Serif" font-size="15.00" fill="#000000">parameters</text>
<text text-anchor="start" x="1338.5" y="-1041" font-family="Helvetica,sans-Serif" font-size="15.00" fill="#666666">json</text>
<text text-anchor="start" x="1253.5" y="-1020" font-family="Helvetica,sans-Serif" font-size="15.00" fill="#999999">+ 4 more fields</text>
<polygon fill="#000000" stroke="#000000" points="1251.5,-1118 1251.5,-1118 1386.5,-1118 1386.5,-1118 1251.5,-1118"/>
</g>
<!-- RecoTag -->
<g id="node5" class="node">
<title>RecoTag</title>
<path fill="#ffffff" stroke="#000000" d="M1383,-972C1383,-972 1254,-972 1254,-972 1248,-972 1242,-966 1242,-960 1242,-960 1242,-840 1242,-840 1242,-834 1248,-828 1254,-828 1254,-828 1383,-828 1383,-828 1389,-828 1395,-834 1395,-840 1395,-840 1395,-960 1395,-960 1395,-966 1389,-972 1383,-972"/>
<text text-anchor="start" x="1253.5" y="-950" font-family="Helvetica,sans-Serif" font-weight="bold" font-size="15.00" fill="#000000">RecoTag</text>
<text text-anchor="start" x="1253.5" y="-928" font-family="Helvetica,sans-Serif" font-size="15.00" fill="#000000">tag_number</text>
<text text-anchor="start" x="1338.5" y="-928" font-family="Helvetica,sans-Serif" font-size="15.00" fill="#666666">integer</text>
<text text-anchor="start" x="1253.5" y="-907" font-family="Helvetica,sans-Serif" font-size="15.00" fill="#000000">tag_label</text>
<text text-anchor="start" x="1338.5" y="-907" font-family="Helvetica,sans-Serif" font-size="15.00" fill="#666666">char</text>
<text text-anchor="start" x="1253.5" y="-886" font-family="Helvetica,sans-Serif" font-size="15.00" fill="#000000">status</text>
<text text-anchor="start" x="1338.5" y="-886" font-family="Helvetica,sans-Serif" font-size="15.00" fill="#666666">char</text>
<text text-anchor="start" x="1253.5" y="-865" font-family="Helvetica,sans-Serif" font-size="15.00" fill="#000000">parameters</text>
<text text-anchor="start" x="1338.5" y="-865" font-family="Helvetica,sans-Serif" font-size="15.00" fill="#666666">json</text>
<text text-anchor="start" x="1253.5" y="-844" font-family="Helvetica,sans-Serif" font-size="15.00" fill="#999999">+ 4 more fields</text>
<polygon fill="#000000" stroke="#000000" points="1251.5,-942 1251.5,-942 1386.5,-942 1386.5,-942 1251.5,-942"/>
</g>
<!-- BackgroundTag -->
<g id="node6" class="node">
<title>BackgroundTag</title>
<path fill="#ffffff" stroke="#000000" d="M1383,-796C1383,-796 1254,-796 1254,-796 1248,-796 1242,-790 1242,-784 1242,-784 1242,-664 1242,-664 1242,-658 1248,-652 1254,-652 1254,-652 1383,-652 1383,-652 1389,-652 1395,-658 1395,-664 1395,-664 1395,-784 1395,-784 1395,-790 1389,-796 1383,-796"/>
<text text-anchor="start" x="1253.5" y="-774" font-family="Helvetica,sans-Serif" font-weight="bold" font-size="15.00" fill="#000000">BackgroundTag</text>
<text text-anchor="start" x="1253.5" y="-752" font-family="Helvetica,sans-Serif" font-size="15.00" fill="#000000">tag_number</text>
<text text-anchor="start" x="1338.5" y="-752" font-family="Helvetica,sans-Serif" font-size="15.00" fill="#666666">integer</text>
<text text-anchor="start" x="1253.5" y="-731" font-family="Helvetica,sans-Serif" font-size="15.00" fill="#000000">tag_label</text>
<text text-anchor="start" x="1338.5" y="-731" font-family="Helvetica,sans-Serif" font-size="15.00" fill="#666666">char</text>
<text text-anchor="start" x="1253.5" y="-710" font-family="Helvetica,sans-Serif" font-size="15.00" fill="#000000">status</text>
<text text-anchor="start" x="1338.5" y="-710" font-family="Helvetica,sans-Serif" font-size="15.00" fill="#666666">char</text>
<text text-anchor="start" x="1253.5" y="-689" font-family="Helvetica,sans-Serif" font-size="15.00" fill="#000000">parameters</text>
<text text-anchor="start" x="1338.5" y="-689" font-family="Helvetica,sans-Serif" font-size="15.00" fill="#666666">json</text>
<text text-anchor="start" x="1253.5" y="-668" font-family="Helvetica,sans-Serif" font-size="15.00" fill="#999999">+ 4 more fields</text>
<polygon fill="#000000" stroke="#000000" points="1251.5,-766 1251.5,-766 1386.5,-766 1386.5,-766 1251.5,-766"/>
</g>
<!-- Dataset -->
<g id="node7" class="node">
<title>Dataset</title>
<path fill="#ffffff" stroke="#000000" d="M1015,-1732C1015,-1732 774,-1732 774,-1732 768,-1732 762,-1726 762,-1720 762,-1720 762,-1390 762,-1390 762,-1384 768,-1378 774,-1378 774,-1378 1015,-1378 1015,-1378 1021,-1378 1027,-1384 1027,-1390 1027,-1390 1027,-1720 1027,-1720 1027,-1726 1021,-1732 1015,-1732"/>
<text text-anchor="start" x="773.5" y="-1710" font-family="Helvetica,sans-Serif" font-weight="bold" font-size="15.00" fill="#000000">Dataset</text>
<text text-anchor="start" x="773.5" y="-1688" font-family="Helvetica,sans-Serif" font-size="15.00" fill="#000000">composed_name</text>
<text text-anchor="start" x="892.5" y="-1688" font-family="Helvetica,sans-Serif" font-size="15.00" fill="#666666">char</text>
<text text-anchor="start" x="773.5" y="-1667" font-family="Helvetica,sans-Serif" font-size="15.00" fill="#000000">sample_name</text>
<text text-anchor="start" x="892.5" y="-1667" font-family="Helvetica,sans-Serif" font-size="15.00" fill="#666666">char</text>
<text text-anchor="start" x="773.5" y="-1646" font-family="Helvetica,sans-Serif" font-size="15.00" fill="#000000">block_num</text>
<text text-anchor="start" x="892.5" y="-1646" font-family="Helvetica,sans-Serif" font-size="15.00" fill="#666666">positiveinteger</text>
<text text-anchor="start" x="773.5" y="-1625" font-family="Helvetica,sans-Serif" font-size="15.00" fill="#000000">detector_version</text>
<text text-anchor="start" x="892.5" y="-1625" font-family="Helvetica,sans-Serif" font-size="15.00" fill="#666666">char</text>
<text text-anchor="start" x="773.5" y="-1604" font-family="Helvetica,sans-Serif" font-size="15.00" fill="#000000">detector_config</text>
<text text-anchor="start" x="892.5" y="-1604" font-family="Helvetica,sans-Serif" font-size="15.00" fill="#666666">char</text>
<text text-anchor="start" x="773.5" y="-1583" font-family="Helvetica,sans-Serif" font-size="15.00" fill="#000000">propagation</text>
<text text-anchor="start" x="892.5" y="-1583" font-family="Helvetica,sans-Serif" font-size="15.00" fill="#666666">char</text>
<text text-anchor="start" x="773.5" y="-1562" font-family="Helvetica,sans-Serif" font-size="15.00" fill="#000000">replaced_by</text>
<text text-anchor="start" x="892.5" y="-1562" font-family="Helvetica,sans-Serif" font-size="15.00" fill="#666666">char</text>
<text text-anchor="start" x="773.5" y="-1541" font-family="Helvetica,sans-Serif" font-size="15.00" fill="#000000">metadata</text>
<text text-anchor="start" x="892.5" y="-1541" font-family="Helvetica,sans-Serif" font-size="15.00" fill="#666666">json</text>
<text text-anchor="start" x="773.5" y="-1520" font-family="Helvetica,sans-Serif" font-size="15.00" fill="#000000">campaign</text>
<text text-anchor="start" x="892.5" y="-1520" font-family="Helvetica,sans-Serif" font-size="15.00" fill="#666666">→ Campaign</text>
<text text-anchor="start" x="773.5" y="-1499" font-family="Helvetica,sans-Serif" font-size="15.00" fill="#000000">physics_tag</text>
<text text-anchor="start" x="892.5" y="-1499" font-family="Helvetica,sans-Serif" font-size="15.00" fill="#666666">→ PhysicsTag</text>
<text text-anchor="start" x="773.5" y="-1478" font-family="Helvetica,sans-Serif" font-size="15.00" fill="#000000">evgen_tag</text>
<text text-anchor="start" x="892.5" y="-1478" font-family="Helvetica,sans-Serif" font-size="15.00" fill="#666666">→ EvgenTag</text>
<text text-anchor="start" x="773.5" y="-1457" font-family="Helvetica,sans-Serif" font-size="15.00" fill="#000000">simu_tag</text>
<text text-anchor="start" x="892.5" y="-1457" font-family="Helvetica,sans-Serif" font-size="15.00" fill="#666666">→ SimuTag</text>
<text text-anchor="start" x="773.5" y="-1436" font-family="Helvetica,sans-Serif" font-size="15.00" fill="#000000">reco_tag</text>
<text text-anchor="start" x="892.5" y="-1436" font-family="Helvetica,sans-Serif" font-size="15.00" fill="#666666">→ RecoTag</text>
<text text-anchor="start" x="773.5" y="-1415" font-family="Helvetica,sans-Serif" font-size="15.00" fill="#000000">background_tag</text>
<text text-anchor="start" x="892.5" y="-1415" font-family="Helvetica,sans-Serif" font-size="15.00" fill="#666666">→ BackgroundTag</text>
<text text-anchor="start" x="773.5" y="-1394" font-family="Helvetica,sans-Serif" font-size="15.00" fill="#999999">+ 9 more fields</text>
<polygon fill="#000000" stroke="#000000" points="771.5,-1702 771.5,-1702 1018.5,-1702 1018.5,-1702 771.5,-1702"/>
</g>
<!-- Dataset&#45;&gt;PhysicsTag -->
<g id="edge3" class="edge">
<title>Dataset&#45;&gt;PhysicsTag</title>
<path fill="none" stroke="#444444" d="M913.5293,-1377.9796C934.8166,-1224.1014 977.7185,-997.9392 1060,-816 1100.7714,-725.8472 1122.1327,-707.0431 1191,-636 1194.1011,-632.8009 1197.3088,-629.6173 1200.5979,-626.4596"/>
<polygon fill="#444444" stroke="#444444" points="1203.0198,-628.9867 1207.9185,-619.5924 1198.2306,-623.8814 1203.0198,-628.9867"/>
<text text-anchor="middle" x="1113" y="-819.8" font-family="Helvetica,sans-Serif" font-size="14.00" fill="#000000">physics_tag</text>
</g>
<!-- Dataset&#45;&gt;EvgenTag -->
<g id="edge4" class="edge">
<title>Dataset&#45;&gt;EvgenTag</title>
<path fill="none" stroke="#444444" d="M1027.0078,-1474.9985C1071.9872,-1446.5581 1121.9757,-1413.5068 1166,-1381 1188.6095,-1364.3055 1212.1881,-1345.2521 1233.856,-1327.0066"/>
<polygon fill="#444444" stroke="#444444" points="1236.3757,-1329.4594 1241.7471,-1320.3271 1231.8531,-1324.1165 1236.3757,-1329.4594"/>
<text text-anchor="middle" x="1113" y="-1454.8" font-family="Helvetica,sans-Serif" font-size="14.00" fill="#000000">evgen_tag</text>
</g>
<!-- Dataset&#45;&gt;SimuTag -->
<g id="edge5" class="edge">
<title>Dataset&#45;&gt;SimuTag</title>
<path fill="none" stroke="#444444" d="M1005.2895,-1377.6955C1022.8865,-1352.1179 1041.4285,-1326.5166 1060,-1303 1112.6117,-1236.3792 1126.5987,-1219.3064 1191,-1164 1204.1337,-1152.7211 1218.7234,-1141.5507 1233.2065,-1131.1473"/>
<polygon fill="#444444" stroke="#444444" points="1235.5784,-1133.7559 1241.7098,-1125.1155 1231.5284,-1128.0465 1235.5784,-1133.7559"/>
<text text-anchor="middle" x="1113" y="-1306.8" font-family="Helvetica,sans-Serif" font-size="14.00" fill="#000000">simu_tag</text>
</g>
<!-- Dataset&#45;&gt;RecoTag -->
<g id="edge6" class="edge">
<title>Dataset&#45;&gt;RecoTag</title>
<path fill="none" stroke="#444444" d="M953.0274,-1377.7657C1000.902,-1255.4355 1079.0849,-1095.9852 1191,-988 1203.9013,-975.5517 1218.7282,-963.6198 1233.6033,-952.7795"/>
<polygon fill="#444444" stroke="#444444" points="1235.7632,-955.5377 1241.8602,-946.873 1231.6906,-949.8444 1235.7632,-955.5377"/>
<text text-anchor="middle" x="1113" y="-1155.8" font-family="Helvetica,sans-Serif" font-size="14.00" fill="#000000">reco_tag</text>
</g>
<!-- Dataset&#45;&gt;BackgroundTag -->
<g id="edge7" class="edge">
<title>Dataset&#45;&gt;BackgroundTag</title>
<path fill="none" stroke="#444444" d="M932.4857,-1377.9218C959.9417,-1266.7447 1002.3607,-1122.1774 1060,-1002 1104.3567,-909.5166 1118.4895,-884.546 1191,-812 1203.754,-799.2398 1218.5779,-787.1248 1233.5115,-776.1929"/>
<polygon fill="#444444" stroke="#444444" points="1235.7196,-778.9164 1241.8068,-770.2448 1231.6405,-773.2277 1235.7196,-778.9164"/>
<text text-anchor="middle" x="1113" y="-1005.8" font-family="Helvetica,sans-Serif" font-size="14.00" fill="#000000">background_tag</text>
</g>
<!-- Campaign -->
<g id="node8" class="node">
<title>Campaign</title>
<path fill="#ffffff" stroke="#000000" d="M1680,-1568.5C1680,-1568.5 1517,-1568.5 1517,-1568.5 1511,-1568.5 1505,-1562.5 1505,-1556.5 1505,-1556.5 1505,-1415.5 1505,-1415.5 1505,-1409.5 1511,-1403.5 1517,-1403.5 1517,-1403.5 1680,-1403.5 1680,-1403.5 1686,-1403.5 1692,-1409.5 1692,-1415.5 1692,-1415.5 1692,-1556.5 1692,-1556.5 1692,-1562.5 1686,-1568.5 1680,-1568.5"/>
<text text-anchor="start" x="1516.5" y="-1546" font-family="Helvetica,sans-Serif" font-weight="bold" font-size="15.00" fill="#000000">Campaign</text>
<text text-anchor="start" x="1516.5" y="-1524" font-family="Helvetica,sans-Serif" font-size="15.00" fill="#000000">name</text>
<text text-anchor="start" x="1593.5" y="-1524" font-family="Helvetica,sans-Serif" font-size="15.00" fill="#666666">char</text>
<text text-anchor="start" x="1516.5" y="-1503" font-family="Helvetica,sans-Serif" font-size="15.00" fill="#000000">lifecycle</text>
<text text-anchor="start" x="1593.5" y="-1503" font-family="Helvetica,sans-Serif" font-size="15.00" fill="#666666">char</text>
<text text-anchor="start" x="1516.5" y="-1482" font-family="Helvetica,sans-Serif" font-size="15.00" fill="#000000">description</text>
<text text-anchor="start" x="1593.5" y="-1482" font-family="Helvetica,sans-Serif" font-size="15.00" fill="#666666">text</text>
<text text-anchor="start" x="1516.5" y="-1461" font-family="Helvetica,sans-Serif" font-size="15.00" fill="#000000">data</text>
<text text-anchor="start" x="1593.5" y="-1461" font-family="Helvetica,sans-Serif" font-size="15.00" fill="#666666">json</text>
<text text-anchor="start" x="1516.5" y="-1440" font-family="Helvetica,sans-Serif" font-size="15.00" fill="#000000">clone_of</text>
<text text-anchor="start" x="1593.5" y="-1440" font-family="Helvetica,sans-Serif" font-size="15.00" fill="#666666">→ Campaign</text>
<text text-anchor="start" x="1516.5" y="-1419" font-family="Helvetica,sans-Serif" font-size="15.00" fill="#999999">+ 5 more fields</text>
<polygon fill="#000000" stroke="#000000" points="1514.5,-1538 1514.5,-1538 1683.5,-1538 1683.5,-1538 1514.5,-1538"/>
</g>
<!-- Dataset&#45;&gt;Campaign -->
<g id="edge2" class="edge">
<title>Dataset&#45;&gt;Campaign</title>
<path fill="none" stroke="#444444" d="M1027.3306,-1541.9811C1162.8834,-1528.6954 1370.4565,-1508.3509 1494.504,-1496.1928"/>
<polygon fill="#444444" stroke="#444444" points="1495.1534,-1499.646 1504.7643,-1495.1872 1494.4706,-1492.6794 1495.1534,-1499.646"/>
<text text-anchor="middle" x="1318.5" y="-1528.8" font-family="Helvetica,sans-Serif" font-size="14.00" fill="#000000">campaign</text>
</g>
<!-- Campaign&#45;&gt;Campaign -->
<g id="edge8" class="edge">
<title>Campaign&#45;&gt;Campaign</title>
<path fill="none" stroke="#444444" d="M1575.481,-1568.5978C1577.5995,-1587.0398 1585.2725,-1600.5 1598.5,-1600.5 1609.144,-1600.5 1616.1914,-1591.7842 1619.6421,-1578.7704"/>
<polygon fill="#444444" stroke="#444444" points="1623.1464,-1579.0669 1621.519,-1568.5978 1616.2626,-1577.7967 1623.1464,-1579.0669"/>
<text text-anchor="middle" x="1598.5" y="-1604.3" font-family="Helvetica,sans-Serif" font-size="14.00" fill="#000000">clone_of</text>
</g>
<!-- ProdConfig -->
<g id="node9" class="node">
<title>ProdConfig</title>
<path fill="#ffffff" stroke="#000000" d="M1423.5,-160C1423.5,-160 1213.5,-160 1213.5,-160 1207.5,-160 1201.5,-154 1201.5,-148 1201.5,-148 1201.5,-28 1201.5,-28 1201.5,-22 1207.5,-16 1213.5,-16 1213.5,-16 1423.5,-16 1423.5,-16 1429.5,-16 1435.5,-22 1435.5,-28 1435.5,-28 1435.5,-148 1435.5,-148 1435.5,-154 1429.5,-160 1423.5,-160"/>
<text text-anchor="start" x="1212.5" y="-138" font-family="Helvetica,sans-Serif" font-weight="bold" font-size="15.00" fill="#000000">ProdConfig</text>
<text text-anchor="start" x="1212.5" y="-116" font-family="Helvetica,sans-Serif" font-size="15.00" fill="#000000">name</text>
<text text-anchor="start" x="1327.5" y="-116" font-family="Helvetica,sans-Serif" font-size="15.00" fill="#666666">char</text>
<text text-anchor="start" x="1212.5" y="-95" font-family="Helvetica,sans-Serif" font-size="15.00" fill="#000000">container_image</text>
<text text-anchor="start" x="1327.5" y="-95" font-family="Helvetica,sans-Serif" font-size="15.00" fill="#666666">char</text>
<text text-anchor="start" x="1212.5" y="-74" font-family="Helvetica,sans-Serif" font-size="15.00" fill="#000000">events_per_task</text>
<text text-anchor="start" x="1327.5" y="-74" font-family="Helvetica,sans-Serif" font-size="15.00" fill="#666666">positiveinteger</text>
<text text-anchor="start" x="1212.5" y="-53" font-family="Helvetica,sans-Serif" font-size="15.00" fill="#000000">data</text>
<text text-anchor="start" x="1327.5" y="-53" font-family="Helvetica,sans-Serif" font-size="15.00" fill="#666666">json</text>
<text text-anchor="start" x="1212.5" y="-32" font-family="Helvetica,sans-Serif" font-size="15.00" fill="#999999">+ 20 more fields</text>
<polygon fill="#000000" stroke="#000000" points="1210.5,-130 1210.5,-130 1426.5,-130 1426.5,-130 1210.5,-130"/>
</g>
<!-- ProdRequest -->
<g id="node10" class="node">
<title>ProdRequest</title>
<path fill="#ffffff" stroke="#000000" d="M1421,-399.5C1421,-399.5 1216,-399.5 1216,-399.5 1210,-399.5 1204,-393.5 1204,-387.5 1204,-387.5 1204,-204.5 1204,-204.5 1204,-198.5 1210,-192.5 1216,-192.5 1216,-192.5 1421,-192.5 1421,-192.5 1427,-192.5 1433,-198.5 1433,-204.5 1433,-204.5 1433,-387.5 1433,-387.5 1433,-393.5 1427,-399.5 1421,-399.5"/>
<text text-anchor="start" x="1215.5" y="-377" font-family="Helvetica,sans-Serif" font-weight="bold" font-size="15.00" fill="#000000">ProdRequest</text>
<text text-anchor="start" x="1215.5" y="-355" font-family="Helvetica,sans-Serif" font-size="15.00" fill="#000000">requestor</text>
<text text-anchor="start" x="1309.5" y="-355" font-family="Helvetica,sans-Serif" font-size="15.00" fill="#666666">char</text>
<text text-anchor="start" x="1215.5" y="-334" font-family="Helvetica,sans-Serif" font-size="15.00" fill="#000000">simu_path</text>
<text text-anchor="start" x="1309.5" y="-334" font-family="Helvetica,sans-Serif" font-size="15.00" fill="#666666">char</text>
<text text-anchor="start" x="1215.5" y="-313" font-family="Helvetica,sans-Serif" font-size="15.00" fill="#000000">nevents</text>
<text text-anchor="start" x="1309.5" y="-313" font-family="Helvetica,sans-Serif" font-size="15.00" fill="#666666">biginteger</text>
<text text-anchor="start" x="1215.5" y="-292" font-family="Helvetica,sans-Serif" font-size="15.00" fill="#000000">status</text>
<text text-anchor="start" x="1309.5" y="-292" font-family="Helvetica,sans-Serif" font-size="15.00" fill="#666666">char</text>
<text text-anchor="start" x="1215.5" y="-271" font-family="Helvetica,sans-Serif" font-size="15.00" fill="#000000">priority</text>
<text text-anchor="start" x="1309.5" y="-271" font-family="Helvetica,sans-Serif" font-size="15.00" fill="#666666">integer</text>
<text text-anchor="start" x="1215.5" y="-250" font-family="Helvetica,sans-Serif" font-size="15.00" fill="#000000">data</text>
<text text-anchor="start" x="1309.5" y="-250" font-family="Helvetica,sans-Serif" font-size="15.00" fill="#666666">json</text>
<text text-anchor="start" x="1215.5" y="-229" font-family="Helvetica,sans-Serif" font-size="15.00" fill="#000000">questionnaire</text>
<text text-anchor="start" x="1309.5" y="-229" font-family="Helvetica,sans-Serif" font-size="15.00" fill="#666666">→ Questionnaire</text>
<text text-anchor="start" x="1215.5" y="-208" font-family="Helvetica,sans-Serif" font-size="15.00" fill="#999999">+ 15 more fields</text>
<polygon fill="#000000" stroke="#000000" points="1213.5,-369 1213.5,-369 1424.5,-369 1424.5,-369 1213.5,-369"/>
</g>
<!-- Questionnaire -->
<g id="node12" class="node">
<title>Questionnaire</title>
<path fill="#ffffff" stroke="#000000" d="M1930,-368C1930,-368 1783,-368 1783,-368 1777,-368 1771,-362 1771,-356 1771,-356 1771,-236 1771,-236 1771,-230 1777,-224 1783,-224 1783,-224 1930,-224 1930,-224 1936,-224 1942,-230 1942,-236 1942,-236 1942,-356 1942,-356 1942,-362 1936,-368 1930,-368"/>
<text text-anchor="start" x="1782.5" y="-346" font-family="Helvetica,sans-Serif" font-weight="bold" font-size="15.00" fill="#000000">Questionnaire</text>
<text text-anchor="start" x="1782.5" y="-324" font-family="Helvetica,sans-Serif" font-size="15.00" fill="#000000">submitted_at</text>
<text text-anchor="start" x="1873.5" y="-324" font-family="Helvetica,sans-Serif" font-size="15.00" fill="#666666">datetime</text>
<text text-anchor="start" x="1782.5" y="-303" font-family="Helvetica,sans-Serif" font-size="15.00" fill="#000000">contact</text>
<text text-anchor="start" x="1873.5" y="-303" font-family="Helvetica,sans-Serif" font-size="15.00" fill="#666666">text</text>
<text text-anchor="start" x="1782.5" y="-282" font-family="Helvetica,sans-Serif" font-size="15.00" fill="#000000">description</text>
<text text-anchor="start" x="1873.5" y="-282" font-family="Helvetica,sans-Serif" font-size="15.00" fill="#666666">text</text>
<text text-anchor="start" x="1782.5" y="-261" font-family="Helvetica,sans-Serif" font-size="15.00" fill="#000000">status</text>
<text text-anchor="start" x="1873.5" y="-261" font-family="Helvetica,sans-Serif" font-size="15.00" fill="#666666">char</text>
<text text-anchor="start" x="1782.5" y="-240" font-family="Helvetica,sans-Serif" font-size="15.00" fill="#999999">+ 11 more fields</text>
<polygon fill="#000000" stroke="#000000" points="1780.5,-338 1780.5,-338 1933.5,-338 1933.5,-338 1780.5,-338"/>
</g>
<!-- ProdRequest&#45;&gt;Questionnaire -->
<g id="edge9" class="edge">
<title>ProdRequest&#45;&gt;Questionnaire</title>
<path fill="none" stroke="#444444" d="M1433.2546,-296C1530.6702,-296 1668.848,-296 1760.496,-296"/>
<polygon fill="#444444" stroke="#444444" points="1760.6022,-299.5001 1770.6021,-296 1760.6021,-292.5001 1760.6022,-299.5001"/>
<text text-anchor="middle" x="1598.5" y="-299.8" font-family="Helvetica,sans-Serif" font-size="14.00" fill="#000000">questionnaire</text>
</g>
<!-- ProdTask -->
<g id="node11" class="node">
<title>ProdTask</title>
<path fill="#ffffff" stroke="#000000" d="M635,-400C635,-400 429,-400 429,-400 423,-400 417,-394 417,-388 417,-388 417,-142 417,-142 417,-136 423,-130 429,-130 429,-130 635,-130 635,-130 641,-130 647,-136 647,-142 647,-142 647,-388 647,-388 647,-394 641,-400 635,-400"/>
<text text-anchor="start" x="428" y="-378" font-family="Helvetica,sans-Serif" font-weight="bold" font-size="15.00" fill="#000000">ProdTask</text>
<text text-anchor="start" x="428" y="-356" font-family="Helvetica,sans-Serif" font-size="15.00" fill="#000000">name</text>
<text text-anchor="start" x="529" y="-356" font-family="Helvetica,sans-Serif" font-size="15.00" fill="#666666">char</text>
<text text-anchor="start" x="428" y="-335" font-family="Helvetica,sans-Serif" font-size="15.00" fill="#000000">status</text>
<text text-anchor="start" x="529" y="-335" font-family="Helvetica,sans-Serif" font-size="15.00" fill="#666666">char</text>
<text text-anchor="start" x="428" y="-314" font-family="Helvetica,sans-Serif" font-size="15.00" fill="#000000">requestor</text>
<text text-anchor="start" x="529" y="-314" font-family="Helvetica,sans-Serif" font-size="15.00" fill="#666666">char</text>
<text text-anchor="start" x="428" y="-293" font-family="Helvetica,sans-Serif" font-size="15.00" fill="#000000">priority</text>
<text text-anchor="start" x="529" y="-293" font-family="Helvetica,sans-Serif" font-size="15.00" fill="#666666">integer</text>
<text text-anchor="start" x="428" y="-272" font-family="Helvetica,sans-Serif" font-size="15.00" fill="#000000">panda_task_id</text>
<text text-anchor="start" x="529" y="-272" font-family="Helvetica,sans-Serif" font-size="15.00" fill="#666666">biginteger</text>
<text text-anchor="start" x="428" y="-251" font-family="Helvetica,sans-Serif" font-size="15.00" fill="#000000">overrides</text>
<text text-anchor="start" x="529" y="-251" font-family="Helvetica,sans-Serif" font-size="15.00" fill="#666666">json</text>
<text text-anchor="start" x="428" y="-230" font-family="Helvetica,sans-Serif" font-size="15.00" fill="#000000">dataset</text>
<text text-anchor="start" x="529" y="-230" font-family="Helvetica,sans-Serif" font-size="15.00" fill="#666666">→ Dataset</text>
<text text-anchor="start" x="428" y="-209" font-family="Helvetica,sans-Serif" font-size="15.00" fill="#000000">prod_config</text>
<text text-anchor="start" x="529" y="-209" font-family="Helvetica,sans-Serif" font-size="15.00" fill="#666666">→ ProdConfig</text>
<text text-anchor="start" x="428" y="-188" font-family="Helvetica,sans-Serif" font-size="15.00" fill="#000000">campaign</text>
<text text-anchor="start" x="529" y="-188" font-family="Helvetica,sans-Serif" font-size="15.00" fill="#666666">→ Campaign</text>
<text text-anchor="start" x="428" y="-167" font-family="Helvetica,sans-Serif" font-size="15.00" fill="#000000">request</text>
<text text-anchor="start" x="529" y="-167" font-family="Helvetica,sans-Serif" font-size="15.00" fill="#666666">→ ProdRequest</text>
<text text-anchor="start" x="428" y="-146" font-family="Helvetica,sans-Serif" font-size="15.00" fill="#999999">+ 12 more fields</text>
<polygon fill="#000000" stroke="#000000" points="426,-370 426,-370 638,-370 638,-370 426,-370"/>
</g>
<!-- ProdTask&#45;&gt;Dataset -->
<g id="edge10" class="edge">
<title>ProdTask&#45;&gt;Dataset</title>
<path fill="none" stroke="#444444" d="M539.1055,-400.1763C554.2629,-653.8169 595.4972,-1190.2798 680,-1354 698.3416,-1389.5359 725.5517,-1422.1495 754.4827,-1450.3002"/>
<polygon fill="#444444" stroke="#444444" points="752.2228,-1452.9818 761.8707,-1457.3601 757.0589,-1447.9209 752.2228,-1452.9818"/>
<text text-anchor="middle" x="704.5" y="-1422.8" font-family="Helvetica,sans-Serif" font-size="14.00" fill="#000000">dataset</text>
</g>
<!-- ProdTask&#45;&gt;Campaign -->
<g id="edge12" class="edge">
<title>ProdTask&#45;&gt;Campaign</title>
<path fill="none" stroke="#444444" d="M563.5497,-400.0078C622.6331,-623.5085 770.938,-1070.6217 1060,-1322 1062.8966,-1324.519 1187.3387,-1364.8465 1191,-1366 1294.0165,-1398.4559 1412.5294,-1433.0498 1495.0941,-1456.7137"/>
<polygon fill="#444444" stroke="#444444" points="1494.1519,-1460.0845 1504.729,-1459.4723 1496.0787,-1453.3549 1494.1519,-1460.0845"/>
<text text-anchor="middle" x="1113" y="-1360.8" font-family="Helvetica,sans-Serif" font-size="14.00" fill="#000000">campaign</text>
</g>
<!-- ProdTask&#45;&gt;ProdConfig -->
<g id="edge11" class="edge">
<title>ProdTask&#45;&gt;ProdConfig</title>
<path fill="none" stroke="#444444" d="M647.2062,-239.0731C792.3948,-206.3987 1041.1089,-150.4262 1191.6107,-116.5561"/>
<polygon fill="#444444" stroke="#444444" points="1192.3923,-119.9679 1201.3798,-114.3576 1190.8553,-113.1387 1192.3923,-119.9679"/>
<text text-anchor="middle" x="894.5" y="-217.8" font-family="Helvetica,sans-Serif" font-size="14.00" fill="#000000">prod_config</text>
</g>
<!-- ProdTask&#45;&gt;ProdRequest -->
<g id="edge13" class="edge">
<title>ProdTask&#45;&gt;ProdRequest</title>
<path fill="none" stroke="#444444" d="M647.2062,-269.5409C793.0841,-275.2907 1043.4727,-285.1598 1193.7476,-291.0829"/>
<polygon fill="#444444" stroke="#444444" points="1193.815,-294.5881 1203.9451,-291.4848 1194.0907,-287.5936 1193.815,-294.5881"/>
<text text-anchor="middle" x="894.5" y="-288.8" font-family="Helvetica,sans-Serif" font-size="14.00" fill="#000000">request</text>
</g>
<!-- PandaTasks -->
<g id="node13" class="node">
<title>PandaTasks</title>
<path fill="#ffffff" stroke="#000000" d="M206,-358C206,-358 28,-358 28,-358 22,-358 16,-352 16,-346 16,-346 16,-184 16,-184 16,-178 22,-172 28,-172 28,-172 206,-172 206,-172 212,-172 218,-178 218,-184 218,-184 218,-346 218,-346 218,-352 212,-358 206,-358"/>
<text text-anchor="start" x="27" y="-336" font-family="Helvetica,sans-Serif" font-weight="bold" font-size="15.00" fill="#000000">PandaTasks</text>
<text text-anchor="start" x="27" y="-314" font-family="Helvetica,sans-Serif" font-size="15.00" fill="#000000">task_name</text>
<text text-anchor="start" x="110" y="-314" font-family="Helvetica,sans-Serif" font-size="15.00" fill="#666666">char</text>
<text text-anchor="start" x="27" y="-293" font-family="Helvetica,sans-Serif" font-size="15.00" fill="#000000">jedi_task_id</text>
<text text-anchor="start" x="110" y="-293" font-family="Helvetica,sans-Serif" font-size="15.00" fill="#666666">biginteger</text>
<text text-anchor="start" x="27" y="-272" font-family="Helvetica,sans-Serif" font-size="15.00" fill="#000000">try_number</text>
<text text-anchor="start" x="110" y="-272" font-family="Helvetica,sans-Serif" font-size="15.00" fill="#666666">positiveinteger</text>
<text text-anchor="start" x="27" y="-251" font-family="Helvetica,sans-Serif" font-size="15.00" fill="#000000">out_ds</text>
<text text-anchor="start" x="110" y="-251" font-family="Helvetica,sans-Serif" font-size="15.00" fill="#666666">char</text>
<text text-anchor="start" x="27" y="-230" font-family="Helvetica,sans-Serif" font-size="15.00" fill="#000000">site</text>
<text text-anchor="start" x="110" y="-230" font-family="Helvetica,sans-Serif" font-size="15.00" fill="#666666">char</text>
<text text-anchor="start" x="27" y="-209" font-family="Helvetica,sans-Serif" font-size="15.00" fill="#000000">prod_task</text>
<text text-anchor="start" x="110" y="-209" font-family="Helvetica,sans-Serif" font-size="15.00" fill="#666666">→ ProdTask</text>
<text text-anchor="start" x="27" y="-188" font-family="Helvetica,sans-Serif" font-size="15.00" fill="#999999">+ 7 more fields</text>
<polygon fill="#000000" stroke="#000000" points="25,-328 25,-328 209,-328 209,-328 25,-328"/>
</g>
<!-- PandaTasks&#45;&gt;ProdTask -->
<g id="edge14" class="edge">
<title>PandaTasks&#45;&gt;ProdTask</title>
<path fill="none" stroke="#444444" d="M218.255,-265C274.9603,-265 346.1625,-265 406.3974,-265"/>
<polygon fill="#444444" stroke="#444444" points="406.7364,-268.5001 416.7364,-265 406.7363,-261.5001 406.7364,-268.5001"/>
<text text-anchor="middle" x="317.5" y="-268.8" font-family="Helvetica,sans-Serif" font-size="14.00" fill="#000000">prod_task</text>
</g>
</g>
</svg>
