<?xml version="1.0" encoding="UTF-8" standalone="no"?>
<!DOCTYPE svg PUBLIC "-//W3C//DTD SVG 1.1//EN"
 "http://www.w3.org/Graphics/SVG/1.1/DTD/svg11.dtd">
<!-- Generated by graphviz version 2.40.1 (0)
 -->
<!-- Title: pcs_data_model Pages: 1 -->
<svg width="1940pt" height="1854pt"
 viewBox="0.00 0.00 1940.00 1854.00" xmlns="http://www.w3.org/2000/svg" xmlns:xlink="http://www.w3.org/1999/xlink">
<g id="graph0" class="graph" transform="scale(1 1) rotate(0) translate(4 1850)">
<title>pcs_data_model</title>
<polygon fill="#ffffff" stroke="transparent" points="-4,4 -4,-1850 1936,-1850 1936,4 -4,4"/>
<g id="clust1" class="cluster">
<title>cluster_tags</title>
<path fill="#eef4fb" stroke="#c8c8c8" d="M547,-29C547,-29 1519,-29 1519,-29 1525,-29 1531,-35 1531,-41 1531,-41 1531,-671 1531,-671 1531,-677 1525,-683 1519,-683 1519,-683 547,-683 547,-683 541,-683 535,-677 535,-671 535,-671 535,-41 535,-41 535,-35 541,-29 547,-29"/>
<text text-anchor="middle" x="1033" y="-663" font-family="Helvetica,sans-Serif" font-size="20.00" fill="#000000">Configuration tags</text>
</g>
<g id="clust2" class="cluster">
<title>cluster_catalog</title>
<path fill="#eaf6ec" stroke="#c8c8c8" d="M1551,-219C1551,-219 1809,-219 1809,-219 1815,-219 1821,-225 1821,-231 1821,-231 1821,-1127 1821,-1127 1821,-1133 1815,-1139 1809,-1139 1809,-1139 1551,-1139 1551,-1139 1545,-1139 1539,-1133 1539,-1127 1539,-1127 1539,-231 1539,-231 1539,-225 1545,-219 1551,-219"/>
<text text-anchor="middle" x="1680" y="-1119" font-family="Helvetica,sans-Serif" font-size="20.00" fill="#000000">Datasets and campaigns</text>
</g>
<g id="clust3" class="cluster">
<title>cluster_production</title>
<path fill="#fdf3e7" stroke="#c8c8c8" d="M20,-8C20,-8 508,-8 508,-8 514,-8 520,-14 520,-20 520,-20 520,-1826 520,-1826 520,-1832 514,-1838 508,-1838 508,-1838 20,-1838 20,-1838 14,-1838 8,-1832 8,-1826 8,-1826 8,-20 8,-20 8,-14 14,-8 20,-8"/>
<text text-anchor="middle" x="264" y="-1818" font-family="Helvetica,sans-Serif" font-size="20.00" fill="#000000">Requests and tasks</text>
</g>
<!-- PhysicsCategory -->
<g id="node1" class="node">
<title>PhysicsCategory</title>
<path fill="#ffffff" stroke="#000000" d="M1488.5,-139C1488.5,-139 1317.5,-139 1317.5,-139 1311.5,-139 1305.5,-133 1305.5,-127 1305.5,-127 1305.5,-49 1305.5,-49 1305.5,-43 1311.5,-37 1317.5,-37 1317.5,-37 1488.5,-37 1488.5,-37 1494.5,-37 1500.5,-43 1500.5,-49 1500.5,-49 1500.5,-127 1500.5,-127 1500.5,-133 1494.5,-139 1488.5,-139"/>
<text text-anchor="start" x="1317" y="-117" font-family="Helvetica,sans-Serif" font-weight="bold" font-size="15.00" fill="#000000">PhysicsCategory</text>
<text text-anchor="start" x="1317" y="-95" font-family="Helvetica,sans-Serif" font-size="15.00" fill="#000000">name</text>
<text text-anchor="start" x="1359" y="-95" font-family="Helvetica,sans-Serif" font-size="15.00" fill="#666666">char</text>
<text text-anchor="start" x="1317" y="-74" font-family="Helvetica,sans-Serif" font-size="15.00" fill="#000000">digit</text>
<text text-anchor="start" x="1359" y="-74" font-family="Helvetica,sans-Serif" font-size="15.00" fill="#666666">positivesmallinteger</text>
<text text-anchor="start" x="1317" y="-53" font-family="Helvetica,sans-Serif" font-size="15.00" fill="#999999">+ 3 more fields</text>
<polygon fill="#000000" stroke="#000000" points="1315,-109 1315,-109 1492,-109 1492,-109 1315,-109"/>
</g>
<!-- PhysicsTag -->
<g id="node2" class="node">
<title>PhysicsTag</title>
<path fill="#ffffff" stroke="#000000" d="M1510.5,-645C1510.5,-645 1295.5,-645 1295.5,-645 1289.5,-645 1283.5,-639 1283.5,-633 1283.5,-633 1283.5,-492 1283.5,-492 1283.5,-486 1289.5,-480 1295.5,-480 1295.5,-480 1510.5,-480 1510.5,-480 1516.5,-480 1522.5,-486 1522.5,-492 1522.5,-492 1522.5,-633 1522.5,-633 1522.5,-639 1516.5,-645 1510.5,-645"/>
<text text-anchor="start" x="1295" y="-622.5" font-family="Helvetica,sans-Serif" font-weight="bold" font-size="15.00" fill="#000000">PhysicsTag</text>
<text text-anchor="start" x="1295" y="-600.5" font-family="Helvetica,sans-Serif" font-size="15.00" fill="#000000">tag_number</text>
<text text-anchor="start" x="1380" y="-600.5" font-family="Helvetica,sans-Serif" font-size="15.00" fill="#666666">integer</text>
<text text-anchor="start" x="1295" y="-579.5" font-family="Helvetica,sans-Serif" font-size="15.00" fill="#000000">tag_label</text>
<text text-anchor="start" x="1380" y="-579.5" font-family="Helvetica,sans-Serif" font-size="15.00" fill="#666666">char</text>
<text text-anchor="start" x="1295" y="-558.5" font-family="Helvetica,sans-Serif" font-size="15.00" fill="#000000">status</text>
<text text-anchor="start" x="1380" y="-558.5" font-family="Helvetica,sans-Serif" font-size="15.00" fill="#666666">char</text>
<text text-anchor="start" x="1295" y="-537.5" font-family="Helvetica,sans-Serif" font-size="15.00" fill="#000000">parameters</text>
<text text-anchor="start" x="1380" y="-537.5" font-family="Helvetica,sans-Serif" font-size="15.00" fill="#666666">json</text>
<text text-anchor="start" x="1295" y="-516.5" font-family="Helvetica,sans-Serif" font-size="15.00" fill="#000000">category</text>
<text text-anchor="start" x="1380" y="-516.5" font-family="Helvetica,sans-Serif" font-size="15.00" fill="#666666">→ PhysicsCategory</text>
<text text-anchor="start" x="1295" y="-495.5" font-family="Helvetica,sans-Serif" font-size="15.00" fill="#999999">+ 4 more fields</text>
<polygon fill="#000000" stroke="#000000" points="1293,-614.5 1293,-614.5 1514,-614.5 1514,-614.5 1293,-614.5"/>
</g>
<!-- PhysicsTag&#45;&gt;PhysicsCategory -->
<g id="edge1" class="edge">
<title>PhysicsTag&#45;&gt;PhysicsCategory</title>
<path fill="none" stroke="#444444" d="M1403,-479.8484C1403,-385.5387 1403,-233.5014 1403,-149.2168"/>
<polygon fill="#444444" stroke="#444444" points="1406.5001,-149.0332 1403,-139.0332 1399.5001,-149.0332 1406.5001,-149.0332"/>
<text text-anchor="middle" x="1431.5" y="-305.8" font-family="Helvetica,sans-Serif" font-size="14.00" fill="#000000">category</text>
</g>
<!-- EvgenTag -->
<g id="node3" class="node">
<title>EvgenTag</title>
<path fill="#ffffff" stroke="#000000" d="M684.5,-634.5C684.5,-634.5 555.5,-634.5 555.5,-634.5 549.5,-634.5 543.5,-628.5 543.5,-622.5 543.5,-622.5 543.5,-502.5 543.5,-502.5 543.5,-496.5 549.5,-490.5 555.5,-490.5 555.5,-490.5 684.5,-490.5 684.5,-490.5 690.5,-490.5 696.5,-496.5 696.5,-502.5 696.5,-502.5 696.5,-622.5 696.5,-622.5 696.5,-628.5 690.5,-634.5 684.5,-634.5"/>
<text text-anchor="start" x="555" y="-612.5" font-family="Helvetica,sans-Serif" font-weight="bold" font-size="15.00" fill="#000000">EvgenTag</text>
<text text-anchor="start" x="555" y="-590.5" font-family="Helvetica,sans-Serif" font-size="15.00" fill="#000000">tag_number</text>
<text text-anchor="start" x="640" y="-590.5" font-family="Helvetica,sans-Serif" font-size="15.00" fill="#666666">integer</text>
<text text-anchor="start" x="555" y="-569.5" font-family="Helvetica,sans-Serif" font-size="15.00" fill="#000000">tag_label</text>
<text text-anchor="start" x="640" y="-569.5" font-family="Helvetica,sans-Serif" font-size="15.00" fill="#666666">char</text>
<text text-anchor="start" x="555" y="-548.5" font-family="Helvetica,sans-Serif" font-size="15.00" fill="#000000">status</text>
<text text-anchor="start" x="640" y="-548.5" font-family="Helvetica,sans-Serif" font-size="15.00" fill="#666666">char</text>
<text text-anchor="start" x="555" y="-527.5" font-family="Helvetica,sans-Serif" font-size="15.00" fill="#000000">parameters</text>
<text text-anchor="start" x="640" y="-527.5" font-family="Helvetica,sans-Serif" font-size="15.00" fill="#666666">json</text>
<text text-anchor="start" x="555" y="-506.5" font-family="Helvetica,sans-Serif" font-size="15.00" fill="#999999">+ 4 more fields</text>
<polygon fill="#000000" stroke="#000000" points="553,-604.5 553,-604.5 688,-604.5 688,-604.5 553,-604.5"/>
</g>
<!-- SimuTag -->
<g id="node4" class="node">
<title>SimuTag</title>
<path fill="#ffffff" stroke="#000000" d="M869.5,-634.5C869.5,-634.5 740.5,-634.5 740.5,-634.5 734.5,-634.5 728.5,-628.5 728.5,-622.5 728.5,-622.5 728.5,-502.5 728.5,-502.5 728.5,-496.5 734.5,-490.5 740.5,-490.5 740.5,-490.5 869.5,-490.5 869.5,-490.5 875.5,-490.5 881.5,-496.5 881.5,-502.5 881.5,-502.5 881.5,-622.5 881.5,-622.5 881.5,-628.5 875.5,-634.5 869.5,-634.5"/>
<text text-anchor="start" x="740" y="-612.5" font-family="Helvetica,sans-Serif" font-weight="bold" font-size="15.00" fill="#000000">SimuTag</text>
<text text-anchor="start" x="740" y="-590.5" font-family="Helvetica,sans-Serif" font-size="15.00" fill="#000000">tag_number</text>
<text text-anchor="start" x="825" y="-590.5" font-family="Helvetica,sans-Serif" font-size="15.00" fill="#666666">integer</text>
<text text-anchor="start" x="740" y="-569.5" font-family="Helvetica,sans-Serif" font-size="15.00" fill="#000000">tag_label</text>
<text text-anchor="start" x="825" y="-569.5" font-family="Helvetica,sans-Serif" font-size="15.00" fill="#666666">char</text>
<text text-anchor="start" x="740" y="-548.5" font-family="Helvetica,sans-Serif" font-size="15.00" fill="#000000">status</text>
<text text-anchor="start" x="825" y="-548.5" font-family="Helvetica,sans-Serif" font-size="15.00" fill="#666666">char</text>
<text text-anchor="start" x="740" y="-527.5" font-family="Helvetica,sans-Serif" font-size="15.00" fill="#000000">parameters</text>
<text text-anchor="start" x="825" y="-527.5" font-family="Helvetica,sans-Serif" font-size="15.00" fill="#666666">json</text>
<text text-anchor="start" x="740" y="-506.5" font-family="Helvetica,sans-Serif" font-size="15.00" fill="#999999">+ 4 more fields</text>
<polygon fill="#000000" stroke="#000000" points="738,-604.5 738,-604.5 873,-604.5 873,-604.5 738,-604.5"/>
</g>
<!-- RecoTag -->
<g id="node5" class="node">
<title>RecoTag</title>
<path fill="#ffffff" stroke="#000000" d="M1054.5,-634.5C1054.5,-634.5 925.5,-634.5 925.5,-634.5 919.5,-634.5 913.5,-628.5 913.5,-622.5 913.5,-622.5 913.5,-502.5 913.5,-502.5 913.5,-496.5 919.5,-490.5 925.5,-490.5 925.5,-490.5 1054.5,-490.5 1054.5,-490.5 1060.5,-490.5 1066.5,-496.5 1066.5,-502.5 1066.5,-502.5 1066.5,-622.5 1066.5,-622.5 1066.5,-628.5 1060.5,-634.5 1054.5,-634.5"/>
<text text-anchor="start" x="925" y="-612.5" font-family="Helvetica,sans-Serif" font-weight="bold" font-size="15.00" fill="#000000">RecoTag</text>
<text text-anchor="start" x="925" y="-590.5" font-family="Helvetica,sans-Serif" font-size="15.00" fill="#000000">tag_number</text>
<text text-anchor="start" x="1010" y="-590.5" font-family="Helvetica,sans-Serif" font-size="15.00" fill="#666666">integer</text>
<text text-anchor="start" x="925" y="-569.5" font-family="Helvetica,sans-Serif" font-size="15.00" fill="#000000">tag_label</text>
<text text-anchor="start" x="1010" y="-569.5" font-family="Helvetica,sans-Serif" font-size="15.00" fill="#666666">char</text>
<text text-anchor="start" x="925" y="-548.5" font-family="Helvetica,sans-Serif" font-size="15.00" fill="#000000">status</text>
<text text-anchor="start" x="1010" y="-548.5" font-family="Helvetica,sans-Serif" font-size="15.00" fill="#666666">char</text>
<text text-anchor="start" x="925" y="-527.5" font-family="Helvetica,sans-Serif" font-size="15.00" fill="#000000">parameters</text>
<text text-anchor="start" x="1010" y="-527.5" font-family="Helvetica,sans-Serif" font-size="15.00" fill="#666666">json</text>
<text text-anchor="start" x="925" y="-506.5" font-family="Helvetica,sans-Serif" font-size="15.00" fill="#999999">+ 4 more fields</text>
<polygon fill="#000000" stroke="#000000" points="923,-604.5 923,-604.5 1058,-604.5 1058,-604.5 923,-604.5"/>
</g>
<!-- BackgroundTag -->
<g id="node6" class="node">
<title>BackgroundTag</title>
<path fill="#ffffff" stroke="#000000" d="M1239.5,-634.5C1239.5,-634.5 1110.5,-634.5 1110.5,-634.5 1104.5,-634.5 1098.5,-628.5 1098.5,-622.5 1098.5,-622.5 1098.5,-502.5 1098.5,-502.5 1098.5,-496.5 1104.5,-490.5 1110.5,-490.5 1110.5,-490.5 1239.5,-490.5 1239.5,-490.5 1245.5,-490.5 1251.5,-496.5 1251.5,-502.5 1251.5,-502.5 1251.5,-622.5 1251.5,-622.5 1251.5,-628.5 1245.5,-634.5 1239.5,-634.5"/>
<text text-anchor="start" x="1110" y="-612.5" font-family="Helvetica,sans-Serif" font-weight="bold" font-size="15.00" fill="#000000">BackgroundTag</text>
<text text-anchor="start" x="1110" y="-590.5" font-family="Helvetica,sans-Serif" font-size="15.00" fill="#000000">tag_number</text>
<text text-anchor="start" x="1195" y="-590.5" font-family="Helvetica,sans-Serif" font-size="15.00" fill="#666666">integer</text>
<text text-anchor="start" x="1110" y="-569.5" font-family="Helvetica,sans-Serif" font-size="15.00" fill="#000000">tag_label</text>
<text text-anchor="start" x="1195" y="-569.5" font-family="Helvetica,sans-Serif" font-size="15.00" fill="#666666">char</text>
<text text-anchor="start" x="1110" y="-548.5" font-family="Helvetica,sans-Serif" font-size="15.00" fill="#000000">status</text>
<text text-anchor="start" x="1195" y="-548.5" font-family="Helvetica,sans-Serif" font-size="15.00" fill="#666666">char</text>
<text text-anchor="start" x="1110" y="-527.5" font-family="Helvetica,sans-Serif" font-size="15.00" fill="#000000">parameters</text>
<text text-anchor="start" x="1195" y="-527.5" font-family="Helvetica,sans-Serif" font-size="15.00" fill="#666666">json</text>
<text text-anchor="start" x="1110" y="-506.5" font-family="Helvetica,sans-Serif" font-size="15.00" fill="#999999">+ 4 more fields</text>
<polygon fill="#000000" stroke="#000000" points="1108,-604.5 1108,-604.5 1243,-604.5 1243,-604.5 1108,-604.5"/>
</g>
<!-- Dataset -->
<g id="node7" class="node">
<title>Dataset</title>
<path fill="#ffffff" stroke="#000000" d="M1800.5,-1101C1800.5,-1101 1559.5,-1101 1559.5,-1101 1553.5,-1101 1547.5,-1095 1547.5,-1089 1547.5,-1089 1547.5,-759 1547.5,-759 1547.5,-753 1553.5,-747 1559.5,-747 1559.5,-747 1800.5,-747 1800.5,-747 1806.5,-747 1812.5,-753 1812.5,-759 1812.5,-759 1812.5,-1089 1812.5,-1089 1812.5,-1095 1806.5,-1101 1800.5,-1101"/>
<text text-anchor="start" x="1559" y="-1079" font-family="Helvetica,sans-Serif" font-weight="bold" font-size="15.00" fill="#000000">Dataset</text>
<text text-anchor="start" x="1559" y="-1057" font-family="Helvetica,sans-Serif" font-size="15.00" fill="#000000">composed_name</text>
<text text-anchor="start" x="1678" y="-1057" font-family="Helvetica,sans-Serif" font-size="15.00" fill="#666666">char</text>
<text text-anchor="start" x="1559" y="-1036" font-family="Helvetica,sans-Serif" font-size="15.00" fill="#000000">sample_name</text>
<text text-anchor="start" x="1678" y="-1036" font-family="Helvetica,sans-Serif" font-size="15.00" fill="#666666">char</text>
<text text-anchor="start" x="1559" y="-1015" font-family="Helvetica,sans-Serif" font-size="15.00" fill="#000000">block_num</text>
<text text-anchor="start" x="1678" y="-1015" font-family="Helvetica,sans-Serif" font-size="15.00" fill="#666666">positiveinteger</text>
<text text-anchor="start" x="1559" y="-994" font-family="Helvetica,sans-Serif" font-size="15.00" fill="#000000">detector_version</text>
<text text-anchor="start" x="1678" y="-994" font-family="Helvetica,sans-Serif" font-size="15.00" fill="#666666">char</text>
<text text-anchor="start" x="1559" y="-973" font-family="Helvetica,sans-Serif" font-size="15.00" fill="#000000">detector_config</text>
<text text-anchor="start" x="1678" y="-973" font-family="Helvetica,sans-Serif" font-size="15.00" fill="#666666">char</text>
<text text-anchor="start" x="1559" y="-952" font-family="Helvetica,sans-Serif" font-size="15.00" fill="#000000">propagation</text>
<text text-anchor="start" x="1678" y="-952" font-family="Helvetica,sans-Serif" font-size="15.00" fill="#666666">char</text>
<text text-anchor="start" x="1559" y="-931" font-family="Helvetica,sans-Serif" font-size="15.00" fill="#000000">replaced_by</text>
<text text-anchor="start" x="1678" y="-931" font-family="Helvetica,sans-Serif" font-size="15.00" fill="#666666">char</text>
<text text-anchor="start" x="1559" y="-910" font-family="Helvetica,sans-Serif" font-size="15.00" fill="#000000">metadata</text>
<text text-anchor="start" x="1678" y="-910" font-family="Helvetica,sans-Serif" font-size="15.00" fill="#666666">json</text>
<text text-anchor="start" x="1559" y="-889" font-family="Helvetica,sans-Serif" font-size="15.00" fill="#000000">campaign</text>
<text text-anchor="start" x="1678" y="-889" font-family="Helvetica,sans-Serif" font-size="15.00" fill="#666666">→ Campaign</text>
<text text-anchor="start" x="1559" y="-868" font-family="Helvetica,sans-Serif" font-size="15.00" fill="#000000">physics_tag</text>
<text text-anchor="start" x="1678" y="-868" font-family="Helvetica,sans-Serif" font-size="15.00" fill="#666666">→ PhysicsTag</text>
<text text-anchor="start" x="1559" y="-847" font-family="Helvetica,sans-Serif" font-size="15.00" fill="#000000">evgen_tag</text>
<text text-anchor="start" x="1678" y="-847" font-family="Helvetica,sans-Serif" font-size="15.00" fill="#666666">→ EvgenTag</text>
<text text-anchor="start" x="1559" y="-826" font-family="Helvetica,sans-Serif" font-size="15.00" fill="#000000">simu_tag</text>
<text text-anchor="start" x="1678" y="-826" font-family="Helvetica,sans-Serif" font-size="15.00" fill="#666666">→ SimuTag</text>
<text text-anchor="start" x="1559" y="-805" font-family="Helvetica,sans-Serif" font-size="15.00" fill="#000000">reco_tag</text>
<text text-anchor="start" x="1678" y="-805" font-family="Helvetica,sans-Serif" font-size="15.00" fill="#666666">→ RecoTag</text>
<text text-anchor="start" x="1559" y="-784" font-family="Helvetica,sans-Serif" font-size="15.00" fill="#000000">background_tag</text>
<text text-anchor="start" x="1678" y="-784" font-family="Helvetica,sans-Serif" font-size="15.00" fill="#666666">→ BackgroundTag</text>
<text text-anchor="start" x="1559" y="-763" font-family="Helvetica,sans-Serif" font-size="15.00" fill="#999999">+ 9 more fields</text>
<polygon fill="#000000" stroke="#000000" points="1557,-1071 1557,-1071 1804,-1071 1804,-1071 1557,-1071"/>
</g>
<!-- Dataset&#45;&gt;PhysicsTag -->
<g id="edge3" class="edge">
<title>Dataset&#45;&gt;PhysicsTag</title>
<path fill="none" stroke="#444444" d="M1547.382,-750.9263C1521.5949,-717.2728 1495.5355,-683.2638 1472.788,-653.5771"/>
<polygon fill="#444444" stroke="#444444" points="1475.3233,-651.1314 1466.4629,-645.3225 1469.767,-655.389 1475.3233,-651.1314"/>
<text text-anchor="middle" x="1555.5" y="-702.8" font-family="Helvetica,sans-Serif" font-size="14.00" fill="#000000">physics_tag</text>
</g>
<!-- Dataset&#45;&gt;EvgenTag -->
<g id="edge4" class="edge">
<title>Dataset&#45;&gt;EvgenTag</title>
<path fill="none" stroke="#444444" d="M1547.1145,-902.1413C1315.4985,-862.2236 849.4067,-773.2925 712,-683 695.7974,-672.353 681.3022,-657.8567 668.8731,-642.6077"/>
<polygon fill="#444444" stroke="#444444" points="671.4954,-640.28 662.5638,-634.5812 665.9921,-644.606 671.4954,-640.28"/>
<text text-anchor="middle" x="803" y="-702.8" font-family="Helvetica,sans-Serif" font-size="14.00" fill="#000000">evgen_tag</text>
</g>
<!-- Dataset&#45;&gt;SimuTag -->
<g id="edge5" class="edge">
<title>Dataset&#45;&gt;SimuTag</title>
<path fill="none" stroke="#444444" d="M1547.1701,-908.1C1382.3759,-883.0682 1098.6637,-822.1225 898,-683 882.1881,-672.0374 867.8476,-657.5635 855.4206,-642.4623"/>
<polygon fill="#444444" stroke="#444444" points="858.0662,-640.1659 849.0989,-634.5234 852.5903,-644.5265 858.0662,-640.1659"/>
<text text-anchor="middle" x="964" y="-702.8" font-family="Helvetica,sans-Serif" font-size="14.00" fill="#000000">simu_tag</text>
</g>
<!-- Dataset&#45;&gt;RecoTag -->
<g id="edge6" class="edge">
<title>Dataset&#45;&gt;RecoTag</title>
<path fill="none" stroke="#444444" d="M1547.3059,-892.2393C1419.0863,-856.7938 1224.0734,-789.9308 1083,-683 1068.1626,-671.7535 1054.4482,-657.5707 1042.3624,-642.9196"/>
<polygon fill="#444444" stroke="#444444" points="1044.8014,-640.3659 1035.8189,-634.7476 1039.3372,-644.7412 1044.8014,-640.3659"/>
<text text-anchor="middle" x="1154" y="-702.8" font-family="Helvetica,sans-Serif" font-size="14.00" fill="#000000">reco_tag</text>
</g>
<!-- Dataset&#45;&gt;BackgroundTag -->
<g id="edge7" class="edge">
<title>Dataset&#45;&gt;BackgroundTag</title>
<path fill="none" stroke="#444444" d="M1547.1804,-862.8914C1461.9814,-819.8615 1352.0016,-756.8819 1268,-683 1254.4385,-671.0723 1241.4897,-656.9249 1229.793,-642.5932"/>
<polygon fill="#444444" stroke="#444444" points="1232.4038,-640.2537 1223.4277,-634.6251 1226.9346,-644.6227 1232.4038,-640.2537"/>
<text text-anchor="middle" x="1350" y="-702.8" font-family="Helvetica,sans-Serif" font-size="14.00" fill="#000000">background_tag</text>
</g>
<!-- Campaign -->
<g id="node8" class="node">
<title>Campaign</title>
<path fill="#ffffff" stroke="#000000" d="M1726.5,-392C1726.5,-392 1563.5,-392 1563.5,-392 1557.5,-392 1551.5,-386 1551.5,-380 1551.5,-380 1551.5,-239 1551.5,-239 1551.5,-233 1557.5,-227 1563.5,-227 1563.5,-227 1726.5,-227 1726.5,-227 1732.5,-227 1738.5,-233 1738.5,-239 1738.5,-239 1738.5,-380 1738.5,-380 1738.5,-386 1732.5,-392 1726.5,-392"/>
<text text-anchor="start" x="1563" y="-369.5" font-family="Helvetica,sans-Serif" font-weight="bold" font-size="15.00" fill="#000000">Campaign</text>
<text text-anchor="start" x="1563" y="-347.5" font-family="Helvetica,sans-Serif" font-size="15.00" fill="#000000">name</text>
<text text-anchor="start" x="1640" y="-347.5" font-family="Helvetica,sans-Serif" font-size="15.00" fill="#666666">char</text>
<text text-anchor="start" x="1563" y="-326.5" font-family="Helvetica,sans-Serif" font-size="15.00" fill="#000000">lifecycle</text>
<text text-anchor="start" x="1640" y="-326.5" font-family="Helvetica,sans-Serif" font-size="15.00" fill="#666666">char</text>
<text text-anchor="start" x="1563" y="-305.5" font-family="Helvetica,sans-Serif" font-size="15.00" fill="#000000">description</text>
<text text-anchor="start" x="1640" y="-305.5" font-family="Helvetica,sans-Serif" font-size="15.00" fill="#666666">text</text>
<text text-anchor="start" x="1563" y="-284.5" font-family="Helvetica,sans-Serif" font-size="15.00" fill="#000000">data</text>
<text text-anchor="start" x="1640" y="-284.5" font-family="Helvetica,sans-Serif" font-size="15.00" fill="#666666">json</text>
<text text-anchor="start" x="1563" y="-263.5" font-family="Helvetica,sans-Serif" font-size="15.00" fill="#000000">clone_of</text>
<text text-anchor="start" x="1640" y="-263.5" font-family="Helvetica,sans-Serif" font-size="15.00" fill="#666666">→ Campaign</text>
<text text-anchor="start" x="1563" y="-242.5" font-family="Helvetica,sans-Serif" font-size="15.00" fill="#999999">+ 5 more fields</text>
<polygon fill="#000000" stroke="#000000" points="1561,-361.5 1561,-361.5 1730,-361.5 1730,-361.5 1561,-361.5"/>
</g>
<!-- Dataset&#45;&gt;Campaign -->
<g id="edge2" class="edge">
<title>Dataset&#45;&gt;Campaign</title>
<path fill="none" stroke="#444444" d="M1669.9,-746.6735C1663.4872,-634.0822 1655.4493,-492.9591 1650.2698,-402.023"/>
<polygon fill="#444444" stroke="#444444" points="1653.7627,-401.7966 1649.6996,-392.0119 1646.774,-402.1948 1653.7627,-401.7966"/>
<text text-anchor="middle" x="1697" y="-558.8" font-family="Helvetica,sans-Serif" font-size="14.00" fill="#000000">campaign</text>
</g>
<!-- Campaign&#45;&gt;Campaign -->
<g id="edge8" class="edge">
<title>Campaign&#45;&gt;Campaign</title>
<path fill="none" stroke="#444444" d="M1738.5914,-330.3526C1757.2177,-328.0056 1770.5,-321.0547 1770.5,-309.5 1770.5,-300.1118 1761.7316,-293.7629 1748.4527,-290.4532"/>
<polygon fill="#444444" stroke="#444444" points="1749.0583,-287.0059 1738.5914,-288.6474 1747.7974,-293.8914 1749.0583,-287.0059"/>
<text text-anchor="middle" x="1798.5" y="-305.8" font-family="Helvetica,sans-Serif" font-size="14.00" fill="#000000">clone_of</text>
</g>
<!-- ProdConfig -->
<g id="node9" class="node">
<title>ProdConfig</title>
<path fill="#ffffff" stroke="#000000" d="M238,-634.5C238,-634.5 28,-634.5 28,-634.5 22,-634.5 16,-628.5 16,-622.5 16,-622.5 16,-502.5 16,-502.5 16,-496.5 22,-490.5 28,-490.5 28,-490.5 238,-490.5 238,-490.5 244,-490.5 250,-496.5 250,-502.5 250,-502.5 250,-622.5 250,-622.5 250,-628.5 244,-634.5 238,-634.5"/>
<text text-anchor="start" x="27" y="-612.5" font-family="Helvetica,sans-Serif" font-weight="bold" font-size="15.00" fill="#000000">ProdConfig</text>
<text text-anchor="start" x="27" y="-590.5" font-family="Helvetica,sans-Serif" font-size="15.00" fill="#000000">name</text>
<text text-anchor="start" x="142" y="-590.5" font-family="Helvetica,sans-Serif" font-size="15.00" fill="#666666">char</text>
<text text-anchor="start" x="27" y="-569.5" font-family="Helvetica,sans-Serif" font-size="15.00" fill="#000000">container_image</text>
<text text-anchor="start" x="142" y="-569.5" font-family="Helvetica,sans-Serif" font-size="15.00" fill="#666666">char</text>
<text text-anchor="start" x="27" y="-548.5" font-family="Helvetica,sans-Serif" font-size="15.00" fill="#000000">events_per_task</text>
<text text-anchor="start" x="142" y="-548.5" font-family="Helvetica,sans-Serif" font-size="15.00" fill="#666666">positiveinteger</text>
<text text-anchor="start" x="27" y="-527.5" font-family="Helvetica,sans-Serif" font-size="15.00" fill="#000000">data</text>
<text text-anchor="start" x="142" y="-527.5" font-family="Helvetica,sans-Serif" font-size="15.00" fill="#666666">json</text>
<text text-anchor="start" x="27" y="-506.5" font-family="Helvetica,sans-Serif" font-size="15.00" fill="#999999">+ 20 more fields</text>
<polygon fill="#000000" stroke="#000000" points="25,-604.5 25,-604.5 241,-604.5 241,-604.5 25,-604.5"/>
</g>
<!-- ProdRequest -->
<g id="node10" class="node">
<title>ProdRequest</title>
<path fill="#ffffff" stroke="#000000" d="M499.5,-666C499.5,-666 294.5,-666 294.5,-666 288.5,-666 282.5,-660 282.5,-654 282.5,-654 282.5,-471 282.5,-471 282.5,-465 288.5,-459 294.5,-459 294.5,-459 499.5,-459 499.5,-459 505.5,-459 511.5,-465 511.5,-471 511.5,-471 511.5,-654 511.5,-654 511.5,-660 505.5,-666 499.5,-666"/>
<text text-anchor="start" x="294" y="-643.5" font-family="Helvetica,sans-Serif" font-weight="bold" font-size="15.00" fill="#000000">ProdRequest</text>
<text text-anchor="start" x="294" y="-621.5" font-family="Helvetica,sans-Serif" font-size="15.00" fill="#000000">requestor</text>
<text text-anchor="start" x="388" y="-621.5" font-family="Helvetica,sans-Serif" font-size="15.00" fill="#666666">char</text>
<text text-anchor="start" x="294" y="-600.5" font-family="Helvetica,sans-Serif" font-size="15.00" fill="#000000">simu_path</text>
<text text-anchor="start" x="388" y="-600.5" font-family="Helvetica,sans-Serif" font-size="15.00" fill="#666666">char</text>
<text text-anchor="start" x="294" y="-579.5" font-family="Helvetica,sans-Serif" font-size="15.00" fill="#000000">nevents</text>
<text text-anchor="start" x="388" y="-579.5" font-family="Helvetica,sans-Serif" font-size="15.00" fill="#666666">biginteger</text>
<text text-anchor="start" x="294" y="-558.5" font-family="Helvetica,sans-Serif" font-size="15.00" fill="#000000">status</text>
<text text-anchor="start" x="388" y="-558.5" font-family="Helvetica,sans-Serif" font-size="15.00" fill="#666666">char</text>
<text text-anchor="start" x="294" y="-537.5" font-family="Helvetica,sans-Serif" font-size="15.00" fill="#000000">priority</text>
<text text-anchor="start" x="388" y="-537.5" font-family="Helvetica,sans-Serif" font-size="15.00" fill="#666666">integer</text>
<text text-anchor="start" x="294" y="-516.5" font-family="Helvetica,sans-Serif" font-size="15.00" fill="#000000">data</text>
<text text-anchor="start" x="388" y="-516.5" font-family="Helvetica,sans-Serif" font-size="15.00" fill="#666666">json</text>
<text text-anchor="start" x="294" y="-495.5" font-family="Helvetica,sans-Serif" font-size="15.00" fill="#000000">questionnaire</text>
<text text-anchor="start" x="388" y="-495.5" font-family="Helvetica,sans-Serif" font-size="15.00" fill="#666666">→ Questionnaire</text>
<text text-anchor="start" x="294" y="-474.5" font-family="Helvetica,sans-Serif" font-size="15.00" fill="#999999">+ 15 more fields</text>
<polygon fill="#000000" stroke="#000000" points="292,-635.5 292,-635.5 503,-635.5 503,-635.5 292,-635.5"/>
</g>
<!-- Questionnaire -->
<g id="node12" class="node">
<title>Questionnaire</title>
<path fill="#ffffff" stroke="#000000" d="M470.5,-160C470.5,-160 323.5,-160 323.5,-160 317.5,-160 311.5,-154 311.5,-148 311.5,-148 311.5,-28 311.5,-28 311.5,-22 317.5,-16 323.5,-16 323.5,-16 470.5,-16 470.5,-16 476.5,-16 482.5,-22 482.5,-28 482.5,-28 482.5,-148 482.5,-148 482.5,-154 476.5,-160 470.5,-160"/>
<text text-anchor="start" x="323" y="-138" font-family="Helvetica,sans-Serif" font-weight="bold" font-size="15.00" fill="#000000">Questionnaire</text>
<text text-anchor="start" x="323" y="-116" font-family="Helvetica,sans-Serif" font-size="15.00" fill="#000000">submitted_at</text>
<text text-anchor="start" x="414" y="-116" font-family="Helvetica,sans-Serif" font-size="15.00" fill="#666666">datetime</text>
<text text-anchor="start" x="323" y="-95" font-family="Helvetica,sans-Serif" font-size="15.00" fill="#000000">contact</text>
<text text-anchor="start" x="414" y="-95" font-family="Helvetica,sans-Serif" font-size="15.00" fill="#666666">text</text>
<text text-anchor="start" x="323" y="-74" font-family="Helvetica,sans-Serif" font-size="15.00" fill="#000000">description</text>
<text text-anchor="start" x="414" y="-74" font-family="Helvetica,sans-Serif" font-size="15.00" fill="#666666">text</text>
<text text-anchor="start" x="323" y="-53" font-family="Helvetica,sans-Serif" font-size="15.00" fill="#000000">status</text>
<text text-anchor="start" x="414" y="-53" font-family="Helvetica,sans-Serif" font-size="15.00" fill="#666666">char</text>
<text text-anchor="start" x="323" y="-32" font-family="Helvetica,sans-Serif" font-size="15.00" fill="#999999">+ 11 more fields</text>
<polygon fill="#000000" stroke="#000000" points="321,-130 321,-130 474,-130 474,-130 321,-130"/>
</g>
<!-- ProdRequest&#45;&gt;Questionnaire -->
<g id="edge9" class="edge">
<title>ProdRequest&#45;&gt;Questionnaire</title>
<path fill="none" stroke="#444444" d="M397,-458.9553C397,-372.2667 397,-250.2171 397,-170.1386"/>
<polygon fill="#444444" stroke="#444444" points="400.5001,-170.1001 397,-160.1001 393.5001,-170.1001 400.5001,-170.1001"/>
<text text-anchor="middle" x="441" y="-305.8" font-family="Helvetica,sans-Serif" font-size="14.00" fill="#000000">questionnaire</text>
</g>
<!-- ProdTask -->
<g id="node11" class="node">
<title>ProdTask</title>
<path fill="#ffffff" stroke="#000000" d="M500,-1465C500,-1465 294,-1465 294,-1465 288,-1465 282,-1459 282,-1453 282,-1453 282,-1207 282,-1207 282,-1201 288,-1195 294,-1195 294,-1195 500,-1195 500,-1195 506,-1195 512,-1201 512,-1207 512,-1207 512,-1453 512,-1453 512,-1459 506,-1465 500,-1465"/>
<text text-anchor="start" x="293" y="-1443" font-family="Helvetica,sans-Serif" font-weight="bold" font-size="15.00" fill="#000000">ProdTask</text>
<text text-anchor="start" x="293" y="-1421" font-family="Helvetica,sans-Serif" font-size="15.00" fill="#000000">name</text>
<text text-anchor="start" x="394" y="-1421" font-family="Helvetica,sans-Serif" font-size="15.00" fill="#666666">char</text>
<text text-anchor="start" x="293" y="-1400" font-family="Helvetica,sans-Serif" font-size="15.00" fill="#000000">status</text>
<text text-anchor="start" x="394" y="-1400" font-family="Helvetica,sans-Serif" font-size="15.00" fill="#666666">char</text>
<text text-anchor="start" x="293" y="-1379" font-family="Helvetica,sans-Serif" font-size="15.00" fill="#000000">requestor</text>
<text text-anchor="start" x="394" y="-1379" font-family="Helvetica,sans-Serif" font-size="15.00" fill="#666666">char</text>
<text text-anchor="start" x="293" y="-1358" font-family="Helvetica,sans-Serif" font-size="15.00" fill="#000000">priority</text>
<text text-anchor="start" x="394" y="-1358" font-family="Helvetica,sans-Serif" font-size="15.00" fill="#666666">integer</text>
<text text-anchor="start" x="293" y="-1337" font-family="Helvetica,sans-Serif" font-size="15.00" fill="#000000">panda_task_id</text>
<text text-anchor="start" x="394" y="-1337" font-family="Helvetica,sans-Serif" font-size="15.00" fill="#666666">biginteger</text>
<text text-anchor="start" x="293" y="-1316" font-family="Helvetica,sans-Serif" font-size="15.00" fill="#000000">overrides</text>
<text text-anchor="start" x="394" y="-1316" font-family="Helvetica,sans-Serif" font-size="15.00" fill="#666666">json</text>
<text text-anchor="start" x="293" y="-1295" font-family="Helvetica,sans-Serif" font-size="15.00" fill="#000000">dataset</text>
<text text-anchor="start" x="394" y="-1295" font-family="Helvetica,sans-Serif" font-size="15.00" fill="#666666">→ Dataset</text>
<text text-anchor="start" x="293" y="-1274" font-family="Helvetica,sans-Serif" font-size="15.00" fill="#000000">prod_config</text>
<text text-anchor="start" x="394" y="-1274" font-family="Helvetica,sans-Serif" font-size="15.00" fill="#666666">→ ProdConfig</text>
<text text-anchor="start" x="293" y="-1253" font-family="Helvetica,sans-Serif" font-size="15.00" fill="#000000">campaign</text>
<text text-anchor="start" x="394" y="-1253" font-family="Helvetica,sans-Serif" font-size="15.00" fill="#666666">→ Campaign</text>
<text text-anchor="start" x="293" y="-1232" font-family="Helvetica,sans-Serif" font-size="15.00" fill="#000000">request</text>
<text text-anchor="start" x="394" y="-1232" font-family="Helvetica,sans-Serif" font-size="15.00" fill="#666666">→ ProdRequest</text>
<text text-anchor="start" x="293" y="-1211" font-family="Helvetica,sans-Serif" font-size="15.00" fill="#999999">+ 12 more fields</text>
<polygon fill="#000000" stroke="#000000" points="291,-1435 291,-1435 503,-1435 503,-1435 291,-1435"/>
</g>
<!-- ProdTask&#45;&gt;Dataset -->
<g id="edge10" class="edge">
<title>ProdTask&#45;&gt;Dataset</title>
<path fill="none" stroke="#444444" d="M512.2698,-1293.5234C747.2964,-1219.1502 1281.2459,-1050.1841 1537.5365,-969.082"/>
<polygon fill="#444444" stroke="#444444" points="1538.8061,-972.3514 1547.2841,-965.9974 1536.6941,-965.6775 1538.8061,-972.3514"/>
<text text-anchor="middle" x="985.5" y="-1150.8" font-family="Helvetica,sans-Serif" font-size="14.00" fill="#000000">dataset</text>
</g>
<!-- ProdTask&#45;&gt;Campaign -->
<g id="edge12" class="edge">
<title>ProdTask&#45;&gt;Campaign</title>
<path fill="none" stroke="#444444" d="M512.1382,-1323.2216C836.919,-1302.9371 1742.3926,-1237.926 1829,-1139 2014.9054,-926.6522 1820.1553,-568.3822 1709.8909,-400.9151"/>
<polygon fill="#444444" stroke="#444444" points="1712.4979,-398.5129 1704.056,-392.1109 1706.663,-402.38 1712.4979,-398.5129"/>
<text text-anchor="middle" x="1900" y="-702.8" font-family="Helvetica,sans-Serif" font-size="14.00" fill="#000000">campaign</text>
</g>
<!-- ProdTask&#45;&gt;ProdConfig -->
<g id="edge11" class="edge">
<title>ProdTask&#45;&gt;ProdConfig</title>
<path fill="none" stroke="#444444" d="M334.5323,-1194.9136C326.6026,-1176.2704 318.8703,-1157.2589 312,-1139 246.8867,-965.9504 186.5057,-757.6142 155.2595,-644.8164"/>
<polygon fill="#444444" stroke="#444444" points="158.5476,-643.5746 152.5106,-634.868 151.8004,-645.439 158.5476,-643.5746"/>
<text text-anchor="middle" x="350.5" y="-920.3" font-family="Helvetica,sans-Serif" font-size="14.00" fill="#000000">prod_config</text>
</g>
<!-- ProdTask&#45;&gt;ProdRequest -->
<g id="edge13" class="edge">
<title>ProdTask&#45;&gt;ProdRequest</title>
<path fill="none" stroke="#444444" d="M397,-1194.9935C397,-1047.7047 397,-814.5137 397,-676.2083"/>
<polygon fill="#444444" stroke="#444444" points="400.5001,-676.0061 397,-666.0061 393.5001,-676.0062 400.5001,-676.0061"/>
<text text-anchor="middle" x="421.5" y="-920.3" font-family="Helvetica,sans-Serif" font-size="14.00" fill="#000000">request</text>
</g>
<!-- PandaTasks -->
<g id="node13" class="node">
<title>PandaTasks</title>
<path fill="#ffffff" stroke="#000000" d="M486,-1800C486,-1800 308,-1800 308,-1800 302,-1800 296,-1794 296,-1788 296,-1788 296,-1626 296,-1626 296,-1620 302,-1614 308,-1614 308,-1614 486,-1614 486,-1614 492,-1614 498,-1620 498,-1626 498,-1626 498,-1788 498,-1788 498,-1794 492,-1800 486,-1800"/>
<text text-anchor="start" x="307" y="-1778" font-family="Helvetica,sans-Serif" font-weight="bold" font-size="15.00" fill="#000000">PandaTasks</text>
<text text-anchor="start" x="307" y="-1756" font-family="Helvetica,sans-Serif" font-size="15.00" fill="#000000">task_name</text>
<text text-anchor="start" x="390" y="-1756" font-family="Helvetica,sans-Serif" font-size="15.00" fill="#666666">char</text>
<text text-anchor="start" x="307" y="-1735" font-family="Helvetica,sans-Serif" font-size="15.00" fill="#000000">jedi_task_id</text>
<text text-anchor="start" x="390" y="-1735" font-family="Helvetica,sans-Serif" font-size="15.00" fill="#666666">biginteger</text>
<text text-anchor="start" x="307" y="-1714" font-family="Helvetica,sans-Serif" font-size="15.00" fill="#000000">try_number</text>
<text text-anchor="start" x="390" y="-1714" font-family="Helvetica,sans-Serif" font-size="15.00" fill="#666666">positiveinteger</text>
<text text-anchor="start" x="307" y="-1693" font-family="Helvetica,sans-Serif" font-size="15.00" fill="#000000">out_ds</text>
<text text-anchor="start" x="390" y="-1693" font-family="Helvetica,sans-Serif" font-size="15.00" fill="#666666">char</text>
<text text-anchor="start" x="307" y="-1672" font-family="Helvetica,sans-Serif" font-size="15.00" fill="#000000">site</text>
<text text-anchor="start" x="390" y="-1672" font-family="Helvetica,sans-Serif" font-size="15.00" fill="#666666">char</text>
<text text-anchor="start" x="307" y="-1651" font-family="Helvetica,sans-Serif" font-size="15.00" fill="#000000">prod_task</text>
<text text-anchor="start" x="390" y="-1651" font-family="Helvetica,sans-Serif" font-size="15.00" fill="#666666">→ ProdTask</text>
<text text-anchor="start" x="307" y="-1630" font-family="Helvetica,sans-Serif" font-size="15.00" fill="#999999">+ 7 more fields</text>
<polygon fill="#000000" stroke="#000000" points="305,-1770 305,-1770 489,-1770 489,-1770 305,-1770"/>
</g>
<!-- PandaTasks&#45;&gt;ProdTask -->
<g id="edge14" class="edge">
<title>PandaTasks&#45;&gt;ProdTask</title>
<path fill="none" stroke="#444444" d="M397,-1613.809C397,-1572.0632 397,-1521.8543 397,-1475.3484"/>
<polygon fill="#444444" stroke="#444444" points="400.5001,-1475.1759 397,-1465.1759 393.5001,-1475.1759 400.5001,-1475.1759"/>
<text text-anchor="middle" x="429.5" y="-1535.8" font-family="Helvetica,sans-Serif" font-size="14.00" fill="#000000">prod_task</text>
</g>
</g>
</svg>
