<svg xmlns="http://www.w3.org/2000/svg" viewBox="0 0 1320 420" font-family="Helvetica, Arial, sans-serif">
  <rect x="0" y="0" width="1320" height="420" fill="#ffffff"/>

  <!-- Title -->
  <text x="660" y="34" text-anchor="middle" font-size="23" font-weight="bold" fill="#1a1a1a">Streaming Computing Planning — FY25–FY31</text>
  <text x="660" y="60" text-anchor="middle" font-size="15" font-style="italic" fill="#555555">Joint DAQ, computing, and AI planning — the context for the WFMS out-years</text>

  <!-- FY header -->
  <rect x="150" y="88" width="1099" height="26" fill="#e8e8e8"/>
  <text x="228" y="106" text-anchor="middle" font-size="14" font-weight="bold" fill="#333333">FY25</text>
  <text x="385" y="106" text-anchor="middle" font-size="14" font-weight="bold" fill="#333333">FY26</text>
  <text x="542" y="106" text-anchor="middle" font-size="14" font-weight="bold" fill="#333333">FY27</text>
  <text x="699" y="106" text-anchor="middle" font-size="14" font-weight="bold" fill="#333333">FY28</text>
  <text x="856" y="106" text-anchor="middle" font-size="14" font-weight="bold" fill="#333333">FY29</text>
  <text x="1013" y="106" text-anchor="middle" font-size="14" font-weight="bold" fill="#333333">FY30</text>
  <text x="1170" y="106" text-anchor="middle" font-size="14" font-weight="bold" fill="#333333">FY31</text>

  <!-- DAQ lane -->
  <text x="140" y="148" text-anchor="end" font-size="15.5" font-weight="bold" fill="#555555">DAQ</text>
  <rect x="150" y="122" width="155" height="40" fill="#757575"/>
  <text x="227" y="147" text-anchor="middle" font-size="13.5" fill="#ffffff">PicoDAQ</text>
  <rect x="309" y="122" width="155" height="40" fill="#757575"/>
  <text x="386" y="147" text-anchor="middle" font-size="13.5" fill="#ffffff">MicroDAQ</text>
  <rect x="468" y="122" width="155" height="40" fill="#757575"/>
  <text x="545" y="147" text-anchor="middle" font-size="13.5" fill="#ffffff">MiniDAQ</text>
  <rect x="627" y="122" width="230" height="40" fill="#757575"/>
  <text x="742" y="147" text-anchor="middle" font-size="13.5" fill="#ffffff">Full DAQ-v1</text>
  <rect x="861" y="122" width="388" height="40" fill="#757575"/>
  <text x="1055" y="147" text-anchor="middle" font-size="13.5" fill="#ffffff">Production DAQ</text>

  <!-- Computing lanes -->
  <text x="140" y="244" text-anchor="end" font-size="15.5" font-weight="bold" fill="#b03a2e">Computing</text>
  <rect x="150" y="170" width="473" height="40" fill="#b03a2e"/>
  <text x="386" y="195" text-anchor="middle" font-size="13.5" fill="#ffffff">Streaming orchestration</text>
  <rect x="627" y="170" width="230" height="40" fill="#b03a2e"/>
  <text x="742" y="195" text-anchor="middle" font-size="13.5" fill="#ffffff">Streaming challenges</text>

  <rect x="150" y="218" width="473" height="40" fill="#b03a2e"/>
  <text x="386" y="243" text-anchor="middle" font-size="13.5" fill="#ffffff">AI-empowered streaming data processing</text>
  <rect x="627" y="218" width="230" height="40" fill="#b03a2e"/>
  <text x="742" y="243" text-anchor="middle" font-size="13.5" fill="#ffffff">Analysis challenges</text>

  <rect x="700" y="266" width="549" height="40" fill="#b03a2e"/>
  <text x="974" y="291" text-anchor="middle" font-size="13.5" fill="#ffffff">Distributed data challenges</text>

  <!-- AI lane -->
  <text x="140" y="339" text-anchor="end" font-size="15.5" font-weight="bold" fill="#1f3864">AI</text>
  <rect x="150" y="314" width="473" height="40" fill="#1f3864"/>
  <text x="386" y="339" text-anchor="middle" font-size="13.5" fill="#ffffff">AI-driven autonomous calibration</text>
  <rect x="627" y="314" width="622" height="40" fill="#1f3864"/>
  <text x="938" y="339" text-anchor="middle" font-size="13.5" fill="#ffffff">AI-driven autonomous alignment, calibration, and control</text>

  <!-- Attribution -->
  <text x="660" y="394" text-anchor="middle" font-size="14" font-style="italic" fill="#777777">From the streaming computing input to the ePIC S&amp;C three-year outlook, January 2026</text>
</svg>
