<svg xmlns="http://www.w3.org/2000/svg" width="1500" height="870" viewBox="0 0 1500 870" font-family="Helvetica, Arial, sans-serif">
  <defs>
    <marker id="arr" viewBox="0 0 10 10" refX="9" refY="5" markerWidth="8" markerHeight="8" orient="auto-start-reverse">
      <path d="M 0 0 L 10 5 L 0 10 z" fill="#1f2937"/>
    </marker>
    <pattern id="tfcells" x="60" y="100" width="34.5" height="60" patternUnits="userSpaceOnUse">
      <line x1="0" y1="0" x2="0" y2="60" stroke="#475569" stroke-width="1.3"/>
    </pattern>
  </defs>

  <rect x="0" y="0" width="1500" height="870" fill="#ffffff"/>

  <text x="20" y="36" font-size="22" font-weight="bold" fill="#0f2f52">Time frames and super time frames — one stream, two grains</text>

  <!-- ===== tier 1: the stream ===== -->
  <text x="60" y="88" font-size="15" font-weight="bold" fill="#0f2f52">From the DAQ — one contiguous, time-ordered TF stream</text>
  <text x="1440" y="88" font-size="15" fill="#1f2937" text-anchor="end">time &#8594;</text>

  <rect x="60" y="100" width="1380" height="60" fill="#dbeafe" stroke="#1e5a96" stroke-width="1.5"/>
  <rect x="60" y="100" width="1380" height="60" fill="url(#tfcells)"/>

  <!-- green dot = the TF holds a physics event -->
  <g fill="#16a34a">
    <circle cx="111.75" cy="130" r="5.5"/>
    <circle cx="249.75" cy="130" r="5.5"/>
    <circle cx="422.25" cy="130" r="5.5"/>
    <circle cx="560.25" cy="130" r="5.5"/>
    <circle cx="698.25" cy="130" r="5.5"/>
    <circle cx="939.75" cy="130" r="5.5"/>
    <circle cx="1112.25" cy="130" r="5.5"/>
    <circle cx="1353.75" cy="130" r="5.5"/>
  </g>

  <!-- file markers -->
  <g stroke="#db2777" stroke-width="4">
    <line x1="60" y1="96" x2="60" y2="164"/>
    <line x1="336" y1="96" x2="336" y2="164"/>
    <line x1="612" y1="96" x2="612" y2="164"/>
    <line x1="888" y1="96" x2="888" y2="164"/>
    <line x1="1164" y1="96" x2="1164" y2="164"/>
    <line x1="1440" y1="96" x2="1440" y2="164"/>
  </g>

  <!-- TF callout -->
  <line x1="230" y1="164" x2="230" y2="180" stroke="#1f2937" stroke-width="1.5"/>
  <text x="230" y="198" font-size="15" fill="#1f2937" text-anchor="middle">time frame (TF) &#8776; 0.6 ms</text>
  <text x="230" y="217" font-size="14" fill="#475569" text-anchor="middle">whole-detector, self-contained</text>

  <!-- STF bracket -->
  <path d="M 612 168 L 612 178 L 888 178 L 888 168" fill="none" stroke="#db2777" stroke-width="2"/>
  <text x="750" y="198" font-size="15" fill="#1f2937" text-anchor="middle">super time frame (STF) &#8776; 1000 TFs &#8776; 0.6 s &#8776; 2 GB</text>
  <text x="750" y="217" font-size="14" fill="#475569" text-anchor="middle">a file marker every ~1000 TFs</text>

  <!-- haystack note -->
  <text x="1440" y="198" font-size="14" fill="#15803d" text-anchor="end">green: physics — at top rates ~300 events</text>
  <text x="1440" y="217" font-size="14" fill="#15803d" text-anchor="end">in a TF amid ~2&#215;10&#8310; background</text>

  <!-- ===== tier 2: the two grains ===== -->

  <!-- left panel: within an STF -->
  <rect x="60" y="250" width="660" height="340" rx="10" fill="#f8fafc" stroke="#94a3b8" stroke-width="1.5"/>
  <text x="390" y="282" font-size="17" font-weight="bold" fill="#0f2f52" text-anchor="middle">Within an STF — time order matters</text>

  <rect x="90" y="310" width="580" height="90" fill="#dbeafe" stroke="#1e5a96" stroke-width="1.5"/>
  <g stroke="#475569" stroke-width="1.3">
    <line x1="187" y1="310" x2="187" y2="400"/>
    <line x1="284" y1="310" x2="284" y2="400"/>
    <line x1="381" y1="310" x2="381" y2="400"/>
    <line x1="478" y1="310" x2="478" y2="400"/>
    <line x1="575" y1="310" x2="575" y2="400"/>
  </g>

  <!-- event dot spanning consecutive TFs -->
  <circle cx="429.5" cy="355" r="7" fill="#16a34a"/>
  <line x1="429.5" y1="400" x2="429.5" y2="418" stroke="#16a34a" stroke-width="1.5"/>
  <text x="411" y="438" font-size="14" fill="#1f2937" text-anchor="middle">detector readout durations stretch the physics signature</text>
  <text x="411" y="457" font-size="14" fill="#1f2937" text-anchor="middle">across TF boundaries — MAPS integration (2&#8211;8 &#181;s) above all</text>

  <!-- event finder window -->
  <rect x="280" y="300" width="300" height="110" rx="8" fill="none" stroke="#d97706" stroke-width="2.5" stroke-dasharray="8,5"/>
  <line x1="580" y1="355" x2="640" y2="355" stroke="#d97706" stroke-width="2" marker-end="url(#arr)"/>
  <text x="390" y="497" font-size="15" fill="#1f2937" text-anchor="middle" font-weight="bold">the event finder slides a window of consecutive TFs,</text>
  <text x="390" y="516" font-size="15" fill="#1f2937" text-anchor="middle" font-weight="bold">scanning in fine (~20 ns) time slices</text>

  <text x="390" y="557" font-size="15" fill="#1f2937" text-anchor="middle">TFs processed together are contiguous and time-ordered, as delivered</text>

  <!-- right panel: among STFs -->
  <rect x="780" y="250" width="660" height="340" rx="10" fill="#f8fafc" stroke="#94a3b8" stroke-width="1.5"/>
  <text x="1110" y="282" font-size="17" font-weight="bold" fill="#0f2f52" text-anchor="middle">Among STFs — any order, anywhere</text>

  <g>
    <rect x="825" y="310" width="120" height="62" rx="6" fill="#bfdbfe" stroke="#1e5a96" stroke-width="1.5"/>
    <text x="885" y="346" font-size="15" font-family="Menlo, Consolas, monospace" fill="#0f2f52" text-anchor="middle">stf.041</text>
    <rect x="975" y="310" width="120" height="62" rx="6" fill="#bfdbfe" stroke="#1e5a96" stroke-width="1.5"/>
    <text x="1035" y="346" font-size="15" font-family="Menlo, Consolas, monospace" fill="#0f2f52" text-anchor="middle">stf.042</text>
    <rect x="1125" y="310" width="120" height="62" rx="6" fill="#bfdbfe" stroke="#1e5a96" stroke-width="1.5"/>
    <text x="1185" y="346" font-size="15" font-family="Menlo, Consolas, monospace" fill="#0f2f52" text-anchor="middle">stf.043</text>
    <rect x="1275" y="310" width="120" height="62" rx="6" fill="#bfdbfe" stroke="#1e5a96" stroke-width="1.5"/>
    <text x="1335" y="346" font-size="15" font-family="Menlo, Consolas, monospace" fill="#0f2f52" text-anchor="middle">stf.044</text>
  </g>

  <g stroke="#1f2937" stroke-width="2">
    <line x1="885" y1="372" x2="1178" y2="450" marker-end="url(#arr)"/>
    <line x1="1035" y1="372" x2="936" y2="450" marker-end="url(#arr)"/>
    <line x1="1185" y1="372" x2="1330" y2="450" marker-end="url(#arr)"/>
    <line x1="1335" y1="372" x2="960" y2="450" marker-end="url(#arr)"/>
  </g>

  <g>
    <rect x="860" y="454" width="160" height="52" rx="8" fill="#93c5fd" stroke="#1e5a96" stroke-width="1.5"/>
    <text x="940" y="485" font-size="15" font-weight="bold" fill="#0f2f52" text-anchor="middle">E1 — BNL</text>
    <rect x="1100" y="454" width="160" height="52" rx="8" fill="#93c5fd" stroke="#1e5a96" stroke-width="1.5"/>
    <text x="1180" y="485" font-size="15" font-weight="bold" fill="#0f2f52" text-anchor="middle">E1 — JLab</text>
    <rect x="1290" y="454" width="120" height="52" rx="8" fill="#93c5fd" stroke="#1e5a96" stroke-width="1.5"/>
    <text x="1350" y="485" font-size="15" font-weight="bold" fill="#0f2f52" text-anchor="middle">E2</text>
  </g>

  <text x="1110" y="557" font-size="15" fill="#1f2937" text-anchor="middle">independent ~2 GB files, sized for shipping, processing, archiving — processed in any order</text>

  <!-- ===== tier 3: STF processing, sample processing, fast monitoring ===== -->
  <text x="60" y="614" font-size="15" font-weight="bold" fill="#0f2f52">From the DAQ and its exit buffer — STF processing, sample processing, fast monitoring</text>

  <rect x="60" y="650" width="300" height="70" rx="10" fill="#dbeafe" stroke="#1e5a96" stroke-width="2"/>
  <text x="210" y="679" font-size="15" font-weight="bold" fill="#0f2f52" text-anchor="middle">DAQ exit buffer</text>
  <text x="210" y="702" font-size="14" fill="#33475e" text-anchor="middle">STF files arrive</text>

  <line x1="360" y1="668" x2="448" y2="662" stroke="#1f2937" stroke-width="2.2" marker-end="url(#arr)"/>
  <text x="404" y="650" font-size="14" fill="#1f2937" text-anchor="middle">STF stream</text>
  <line x1="685" y1="694" x2="685" y2="710" stroke="#1f2937" stroke-width="2.2" marker-end="url(#arr)"/>
  <text x="700" y="707" font-size="14" fill="#1f2937">sample</text>

  <rect x="450" y="630" width="470" height="64" rx="10" fill="#dbeafe" stroke="#1e5a96" stroke-width="2"/>
  <text x="685" y="657" font-size="15" font-weight="bold" fill="#0f2f52" text-anchor="middle">E1 buffers — BNL and JLab</text>
  <text x="685" y="679" font-size="14" fill="#33475e" text-anchor="middle">run datasets fill as STFs arrive</text>

  <line x1="920" y1="662" x2="1090" y2="662" stroke="#1f2937" stroke-width="2.2" marker-end="url(#arr)"/>

  <rect x="1090" y="630" width="350" height="64" rx="10" fill="#dbeafe" stroke="#1e5a96" stroke-width="2"/>
  <text x="1265" y="657" font-size="15" font-weight="bold" fill="#0f2f52" text-anchor="middle">Prompt STF processing</text>
  <text x="1265" y="679" font-size="14" fill="#33475e" text-anchor="middle">complete first-pass results, minutes to hours</text>

  <rect x="450" y="712" width="470" height="64" rx="10" fill="#dbeafe" stroke="#1e5a96" stroke-width="2"/>
  <text x="685" y="739" font-size="15" font-weight="bold" fill="#0f2f52" text-anchor="middle">TF sampling from STFs</text>
  <text x="685" y="761" font-size="14" fill="#33475e" text-anchor="middle">to consumers via messaging and XRootD</text>

  <line x1="920" y1="744" x2="1090" y2="744" stroke="#1f2937" stroke-width="2.2" marker-end="url(#arr)"/>
  <text x="1005" y="731" font-size="14" fill="#1f2937" text-anchor="middle">remote read (XRootD)</text>

  <rect x="1090" y="712" width="350" height="64" rx="10" fill="#dbeafe" stroke="#1e5a96" stroke-width="2"/>
  <text x="1265" y="739" font-size="15" font-weight="bold" fill="#0f2f52" text-anchor="middle">Fast processing workers</text>
  <text x="1265" y="761" font-size="14" fill="#33475e" text-anchor="middle">standing pool, O(10 s) results</text>

  <rect x="60" y="794" width="300" height="64" rx="10" fill="#dbeafe" stroke="#1e5a96" stroke-width="2"/>
  <text x="210" y="832" font-size="15" font-weight="bold" fill="#0f2f52" text-anchor="middle">DAQ TF substream</text>

  <line x1="360" y1="826" x2="450" y2="826" stroke="#1f2937" stroke-width="2.2" marker-end="url(#arr)"/>
  <text x="405" y="814" font-size="14" fill="#1f2937" text-anchor="middle">TF stream</text>

  <rect x="450" y="794" width="470" height="64" rx="10" fill="#dbeafe" stroke="#1e5a96" stroke-width="2"/>
  <text x="685" y="821" font-size="15" font-weight="bold" fill="#0f2f52" text-anchor="middle">Direct TF stream consumers</text>
  <text x="685" y="843" font-size="14" fill="#33475e" text-anchor="middle">results within seconds</text>
</svg>
